<svg width="1128" height="624" viewBox="0 0 1128 624" fill="none" xmlns="http://www.w3.org/2000/svg">
<path d="M564.465 623.05C714.798 623.05 836.667 501.181 836.667 350.847C836.667 200.514 714.798 78.6453 564.465 78.6453C414.132 78.6453 292.263 200.514 292.263 350.847C292.263 501.181 414.132 623.05 564.465 623.05Z" fill="#FEFEFE" stroke="#5C6366" stroke-width="2.0009" stroke-miterlimit="22.9256" stroke-linecap="round" stroke-linejoin="round" stroke-dasharray="3.99 5.99"/>
<path d="M564.465 605.292C704.991 605.292 818.909 491.373 818.909 350.847C818.909 210.322 704.991 96.4033 564.465 96.4033C423.94 96.4033 310.021 210.322 310.021 350.847C310.021 491.373 423.94 605.292 564.465 605.292Z" stroke="#5C6366" stroke-width="2.0009" stroke-miterlimit="22.9256" stroke-linecap="round" stroke-linejoin="round" stroke-dasharray="3.99 5.99"/>
<path d="M564.465 589.515C696.277 589.515 803.132 482.66 803.132 350.847C803.132 219.035 696.277 112.18 564.465 112.18C432.653 112.18 325.798 219.035 325.798 350.847C325.798 482.66 432.653 589.515 564.465 589.515Z" stroke="#5C6366" stroke-width="2.0009" stroke-miterlimit="22.9256" stroke-linecap="round" stroke-linejoin="round" stroke-dasharray="3.99 5.99"/>
<path fill-rule="evenodd" clip-rule="evenodd" d="M545.487 198.659C545.757 189.965 545.126 181.251 543.516 172.708C540.664 157.481 535.872 144.865 524.087 135.361C524.207 135.241 524.327 135.121 524.447 135.011C525.888 133.59 527.428 132.059 526.638 129.778C525.778 127.307 523.277 127.187 521.116 127.147C518.244 127.077 515.343 126.577 512.482 126.287C504.558 125.026 496.875 122.605 488.921 121.545C475.955 119.814 456.397 119.994 447.212 130.969C441.96 130.869 436.928 132.109 432.436 135.021C414.768 146.506 412.187 179.681 413.037 201.2C413.167 204.582 413.767 210.324 413.637 210.464C409.856 214.486 410.966 222.03 413.167 226.342C414.538 229.043 416.569 231.454 419.25 232.925C421.561 234.195 423.902 235.085 426.503 235.496C427.103 235.586 428.754 235.686 429.374 235.856C429.595 236.196 429.845 236.996 429.935 237.296C434.637 253.064 435.047 261.257 449.624 268.01C446.292 269.321 443.021 270.792 439.679 272.082C434.767 274.033 439.429 275.774 432.226 276.714C427.834 277.284 425.343 279.145 421.671 284.718C412.057 299.254 401.132 312.9 391.728 327.577C383.454 340.493 386.195 337.191 393.879 350.837C397.49 357.26 401.112 363.693 404.723 370.116C406.084 372.517 407.515 373.638 408.435 375.418C412.237 382.752 417.019 391.436 427.684 392.926L427.234 419.148H430.615C431.575 419.158 432.536 419.158 433.496 419.158L433.686 560.762C429.825 564.653 424.132 571.336 427.474 576.369C430.905 581.531 440.499 579.39 445.312 577.799C450.144 576.199 453.916 574.118 458.177 571.396C461.839 569.055 462.88 565.904 462.729 561.662V561.482H463.55L476.896 464.528L474.355 561.512H474.875V561.662C474.725 565.974 475.775 569.155 479.497 571.536C483.839 574.318 487.671 576.429 492.603 578.069C497.475 579.68 507.259 581.871 510.731 576.639C514.343 571.216 507.55 563.873 503.688 560.081L527.819 435.305C529.099 430.873 528.249 432.604 532.701 428.622C537.443 424.38 540.434 416.857 542.325 411.505L545.006 411.595L545.256 408.413C545.887 400.34 546.227 392.216 546.447 384.122C546.717 374.458 546.777 364.774 546.657 355.109C546.467 340.513 545.927 325.536 544.206 311.04C543.696 306.778 542.755 299.314 540.875 293.092C538.463 285.148 533.831 279.045 526.428 277.234C516.744 274.863 525.328 273.703 514.273 270.251C512.372 269.661 510.611 268.711 508.76 267.98C524.017 260.787 523.607 253.764 528.509 237.296C528.599 236.996 528.849 236.196 529.069 235.856C529.7 235.686 531.34 235.586 531.941 235.496C534.542 235.085 536.893 234.195 539.194 232.925C541.875 231.454 543.906 229.043 545.287 226.342C547.548 221.89 548.938 213.716 544.386 210.114C544.386 210.114 545.347 203.311 545.487 198.659ZM425.543 359.982C423.802 355.8 422.071 351.618 420.33 347.426C417.679 341.033 418.029 342.754 423.732 338.122C431.215 332.059 428.824 335.04 428.664 344.825C428.574 349.957 428.494 355.079 428.404 360.212C427.143 360.082 426.753 359.972 425.543 359.982Z" fill="#664A27"/>
<path fill-rule="evenodd" clip-rule="evenodd" d="M517.154 172.727C524.507 182.782 529.069 197.879 528.999 221.379C546.527 198.659 547.978 224.291 537.583 230.013C529.449 234.505 527.208 230.003 525.318 236.346C520.055 253.994 521.186 259.266 504.278 266.329C490.862 271.932 467.692 271.662 454.166 266.329C438.228 260.047 438.389 253.994 433.126 236.346C431.235 230.003 428.994 234.505 420.861 230.013C410.476 224.291 411.917 198.659 429.445 221.379C429.354 191.806 436.618 175.529 447.533 165.864C449.113 165.314 450.794 165.844 454.506 166.715C461.269 168.306 467.872 170.527 474.555 172.437L480.057 174.018L478.997 168.386C478.597 166.295 477.776 163.984 476.656 161.733C486.56 165.144 496.475 169.536 505.209 174.668L510.021 177.49L510.521 171.947C510.681 170.196 510.501 168.225 510.101 166.215C512.812 168.436 515.143 170.577 517.154 172.727Z" fill="#FFD9C2"/>
<path fill-rule="evenodd" clip-rule="evenodd" d="M518.414 135.321C531.57 144.125 537.043 156.25 540.254 173.328C542.245 183.933 542.635 195.208 541.745 207.003C538.954 209.154 536.162 211.315 533.381 213.466C531.83 184.903 526.378 171.887 502.767 156.58H502.757C505.419 161.292 507.359 167.665 506.999 171.627C497.145 165.834 482.778 159.402 467.251 155.12C470.293 157.501 474.465 163.413 475.525 169.046C469.372 167.275 462.149 164.884 455.316 163.273C450.694 162.193 435.047 158.681 432.786 159.602C431.105 160.282 444.611 161.973 440.319 167.315C432.236 177.39 426.303 190.696 425.073 213.466C422.281 211.315 419.49 209.154 416.699 207.003C414.968 183.842 416.589 131.869 448.803 134.38C455.686 124.386 472.974 122.765 488.481 124.836C496.334 125.886 503.898 128.308 512.052 129.588C516.704 130.058 517.904 130.399 521.046 130.469C524.277 130.539 523.997 130.769 522.106 132.64C520.765 133.97 519.185 134.971 518.414 135.321Z" fill="#A7774E"/>
<path fill-rule="evenodd" clip-rule="evenodd" d="M438.569 279.325C430.875 280.036 428.894 279.826 424.442 286.549C414.218 302.016 403.383 315.392 393.939 330.298C389.497 337.301 389.056 335.601 392.928 342.494C398.371 352.158 403.813 361.822 409.245 371.487C410.346 365.714 413.888 361.122 422.241 359.301C420.45 355.329 418.65 351.358 416.849 347.386C413.637 340.303 413.367 342.234 419.51 337.261C420.991 336.061 422.471 334.86 423.952 333.66C433.226 326.146 432.346 324.346 432.126 336.131C431.605 363.643 431.175 386.433 430.625 415.827C442.21 415.837 453.785 415.857 465.371 415.877C465.771 376.529 466.161 337.171 466.551 297.824C466.641 288.549 454.916 292.301 447.553 298.134C441.6 302.856 442.68 301.675 440.7 290.911C439.749 285.728 439.519 284.508 438.569 279.325Z" fill="#CAE05E"/>
<path fill-rule="evenodd" clip-rule="evenodd" d="M445.732 295.833C444.381 288.77 442.23 282.247 440.88 275.183C444.101 273.943 448.113 272.162 451.334 270.922C455.076 276.934 458.808 282.957 462.549 288.98C455.466 288.88 449.734 290.951 445.732 295.833Z" fill="#CAE05E"/>
<path fill-rule="evenodd" clip-rule="evenodd" d="M519.875 279.325C528.249 280.096 534.382 284.318 537.153 292.371C544.406 313.451 544.326 377.399 541.935 408.163L530.31 407.773C530.42 382.772 530.42 338.292 529.129 327.467C528.909 325.656 526.808 326.697 526.148 326.887C526.708 356.53 527.268 386.183 527.829 415.827C516.243 415.837 504.658 415.857 493.073 415.877C492.683 376.529 492.283 337.171 491.893 297.824C491.822 290.25 500.336 291.391 507.259 295.242C517.704 301.045 514.793 306.958 518.034 289.32C518.745 285.458 519.165 283.187 519.875 279.325Z" fill="#CAE05E"/>
<path fill-rule="evenodd" clip-rule="evenodd" d="M512.712 295.833C514.062 288.77 516.213 282.247 517.564 275.183C514.343 273.943 510.331 272.162 507.109 270.922C503.378 276.934 499.636 282.957 495.904 288.98C502.977 288.88 508.72 290.951 512.712 295.833Z" fill="#CAE05E"/>
<path fill-rule="evenodd" clip-rule="evenodd" d="M494.314 273.573L501.927 271.872C498.786 277.164 491.933 287.109 490.212 292.541C488.591 297.684 488.881 303.016 488.911 308.318L489.401 399.739H469.042L469.532 308.318C469.562 303.016 469.853 297.684 468.232 292.541C466.521 287.109 459.658 277.164 456.527 271.872L464.13 273.573C470.113 285.348 488.611 285.518 494.314 273.573Z" fill="#FEFEFE"/>
<path fill-rule="evenodd" clip-rule="evenodd" d="M489.231 273.763C482.558 273.763 475.885 273.763 469.212 273.763C475.425 282.567 486.01 280.646 489.231 273.763Z" fill="#FFD9C2"/>
<path fill-rule="evenodd" clip-rule="evenodd" d="M429.545 390.545C431.325 391.556 433.306 392.076 435.047 390.865C435.647 390.445 436.098 389.865 436.318 389.175C436.408 388.915 436.458 388.644 436.478 388.384C438.038 388.814 439.629 388.804 440.94 387.824C441.47 387.424 441.87 386.884 442.09 386.253C442.56 384.863 441.99 383.472 441.05 382.212C441.66 382.061 442.2 381.771 442.661 381.311C445.882 378.04 439.039 372.357 436.878 370.316C436.528 369.976 436.168 369.646 435.807 369.316C434.657 368.225 432.726 366.855 431.566 365.944V360.162L430.185 360.442C424.462 359.551 419.28 359.611 414.698 363.683C412.257 365.844 410.706 368.605 410.446 371.897C410.146 375.789 411.727 379.63 413.888 382.792C416.239 386.253 423.392 393.767 428.224 391.676C428.774 391.446 429.234 391.055 429.545 390.545Z" fill="#664A27"/>
<path fill-rule="evenodd" clip-rule="evenodd" d="M416.219 365.394C420.28 361.782 424.082 361.702 428.964 362.473V367.275C428.884 367.525 432.666 369.506 434.247 370.976C438.018 374.528 442.23 378.49 441.03 379.71C439.409 381.351 430.675 376.519 430.475 376.749C430.475 376.749 442.28 383.942 439.559 385.993C436.728 388.124 428.224 380.431 427.854 380.991C427.504 381.501 436.278 387.204 433.736 388.985C430.955 390.925 424.202 382.232 423.162 383.062C422.672 383.452 429.274 388.734 427.314 389.575C422.872 391.496 405.304 375.068 416.219 365.394Z" fill="#FFD9C2"/>
<path fill-rule="evenodd" clip-rule="evenodd" d="M489.401 402.561H469.042V419.098H436.828L437.008 558.15H460.649L476.846 440.508L480.938 437.346L477.766 558.18H500.667L524.867 433.064V419.098H489.682L489.401 402.561Z" fill="#579CD7"/>
<path fill-rule="evenodd" clip-rule="evenodd" d="M539.374 409.874C536.302 409.874 533.241 409.874 530.17 409.874C530.17 412.395 530.17 414.926 530.17 417.447C528.929 417.447 527.699 417.447 526.458 417.447C526.458 420.129 526.458 425.671 526.458 428.352C532.321 427.042 536.392 418.398 539.374 409.874Z" fill="#FFD9C2"/>
<path fill-rule="evenodd" clip-rule="evenodd" d="M500.776 561.892C493.253 561.852 485.73 561.812 478.196 561.772C478.066 565.534 478.997 567.265 481.288 568.735C485.45 571.396 488.771 573.287 493.653 574.908C504.598 578.54 516.634 577.249 500.776 561.892Z" fill="#79563A"/>
<path fill-rule="evenodd" clip-rule="evenodd" d="M437.288 561.892C444.661 561.852 452.035 561.812 459.408 561.772C459.528 565.454 458.628 567.155 456.377 568.595C452.305 571.196 449.043 573.057 444.261 574.638C433.536 578.199 421.751 576.929 437.288 561.892Z" fill="#79563A"/>
<path fill-rule="evenodd" clip-rule="evenodd" d="M517.494 194.247C515.543 191.496 507.69 189.415 496.985 187.654C494.984 187.674 494.224 188.395 494.294 189.595C494.424 190.395 494.554 191.196 494.684 191.986C494.013 191.466 493.353 190.956 492.683 190.435C492.723 191.376 492.913 192.356 493.563 193.407C493.903 193.967 494.374 194.537 495.004 195.138C496.635 195.588 496.334 195.548 497.965 195.238C500.556 194.737 503.188 194.577 506.039 194.547C509.19 194.507 512.592 194.577 516.644 195.168C517.654 195.318 518.514 195.678 517.494 194.247Z" fill="#664A27"/>
<path fill-rule="evenodd" clip-rule="evenodd" d="M440.8 193.357C442.941 190.756 450.924 189.245 461.729 188.254C463.73 188.415 464.43 189.185 464.27 190.385C464.09 191.166 463.9 191.956 463.71 192.736C464.42 192.266 465.12 191.796 465.821 191.326C465.721 192.276 465.451 193.227 464.73 194.237C464.35 194.767 463.84 195.298 463.17 195.858C461.509 196.188 461.819 196.178 460.208 195.748C457.667 195.058 455.046 194.707 452.215 194.477C449.063 194.217 445.662 194.037 441.59 194.337C440.569 194.417 439.679 194.717 440.8 193.357Z" fill="#664A27"/>
<path fill-rule="evenodd" clip-rule="evenodd" d="M478.737 231.254C477.866 231.334 476.986 231.124 476.066 230.353C475.565 229.923 468.962 227.522 470.483 230.764C471.413 232.724 475.275 233.565 478.627 233.745L478.737 233.755L478.857 233.745C482.198 233.565 486.07 232.724 486.99 230.764C488.521 227.522 481.918 229.923 481.418 230.353C480.497 231.124 479.617 231.334 478.737 231.254Z" fill="#664A27"/>
<path d="M491.242 248.471C491.933 248.031 492.843 248.241 493.273 248.932C493.703 249.622 493.503 250.522 492.813 250.963C487.951 254.014 483.239 255.505 478.687 255.485C474.105 255.465 469.733 253.914 465.561 250.913C464.9 250.432 464.75 249.512 465.221 248.852C465.701 248.191 466.621 248.051 467.281 248.522C470.943 251.163 474.755 252.523 478.707 252.543C482.688 252.563 486.86 251.223 491.242 248.471Z" fill="#664A27"/>
<path d="M451.734 203.481H450.794C448.12 203.481 445.952 205.649 445.952 208.323V213.846C445.952 216.52 448.12 218.688 450.794 218.688H451.734C454.409 218.688 456.577 216.52 456.577 213.846V208.323C456.577 205.649 454.409 203.481 451.734 203.481Z" fill="#664A27"/>
<path d="M452.965 204.022H452.255C450.26 204.022 448.643 205.639 448.643 207.633V211.765C448.643 213.76 450.26 215.377 452.255 215.377H452.965C454.96 215.377 456.577 213.76 456.577 211.765V207.633C456.577 205.639 454.96 204.022 452.965 204.022Z" fill="#579CD7"/>
<path d="M455.436 210.655C457.503 210.655 459.178 208.979 459.178 206.913C459.178 204.846 457.503 203.171 455.436 203.171C453.37 203.171 451.695 204.846 451.695 206.913C451.695 208.979 453.37 210.655 455.436 210.655Z" fill="#FFD9C2"/>
<path d="M451.234 213.106C452.174 213.106 452.935 212.344 452.935 211.405C452.935 210.466 452.174 209.704 451.234 209.704C450.295 209.704 449.534 210.466 449.534 211.405C449.534 212.344 450.295 213.106 451.234 213.106Z" fill="#FFD9C2"/>
<path d="M503.428 203.481H502.487C499.813 203.481 497.645 205.649 497.645 208.323V213.846C497.645 216.52 499.813 218.688 502.487 218.688H503.428C506.102 218.688 508.27 216.52 508.27 213.846V208.323C508.27 205.649 506.102 203.481 503.428 203.481Z" fill="#664A27"/>
<path d="M504.658 204.022H503.948C501.953 204.022 500.336 205.639 500.336 207.633V211.765C500.336 213.76 501.953 215.377 503.948 215.377H504.658C506.653 215.377 508.27 213.76 508.27 211.765V207.633C508.27 205.639 506.653 204.022 504.658 204.022Z" fill="#579CD7"/>
<path d="M507.129 210.655C509.196 210.655 510.871 208.979 510.871 206.913C510.871 204.846 509.196 203.171 507.129 203.171C505.063 203.171 503.388 204.846 503.388 206.913C503.388 208.979 505.063 210.655 507.129 210.655Z" fill="#FFD9C2"/>
<path d="M502.937 213.106C503.877 213.106 504.638 212.344 504.638 211.405C504.638 210.466 503.877 209.704 502.937 209.704C501.998 209.704 501.237 210.466 501.237 211.405C501.237 212.344 501.998 213.106 502.937 213.106Z" fill="#FFD9C2"/>
<path fill-rule="evenodd" clip-rule="evenodd" d="M717.244 204.072C721.506 206.112 724.217 209.794 724.577 214.736C725.037 220.919 723.847 226.502 719.605 230.924L719.145 234.115C717.834 243.359 715.533 252.793 712.572 261.647C710.501 267.85 708.02 274.023 704.928 279.786C703.718 282.057 702.087 284.408 700.636 286.549C699.376 288.429 698.095 290.29 696.785 292.141L696.154 293.042C698.635 297.123 700.806 301.515 702.817 305.827C704.508 309.459 706.109 313.121 707.679 316.802C709.91 322.005 710.351 321.444 714.032 317.793L722.856 308.148C722.356 306.778 722.056 305.487 721.726 304.076C721.346 302.476 720.985 300.875 720.645 299.274C720.195 297.083 719.755 294.782 719.565 292.551C719.365 290.27 719.395 287.199 722.066 286.329C723.016 286.028 724.017 285.998 724.977 286.308C727.668 287.189 728.629 290.03 729.799 292.391C730.42 291.211 731.02 290.02 731.64 288.85C732.651 286.919 733.701 284.908 734.922 283.117C736.112 281.366 737.853 279.385 740.234 279.946C740.554 280.016 740.854 280.136 741.134 280.296C743.626 281.696 743.305 284.738 742.725 287.329C744.586 285.218 747.147 282.797 749.998 283.467C750.599 283.607 751.159 283.877 751.639 284.248C752.209 284.698 752.66 285.258 752.94 285.928C753.87 288.079 752.81 290.39 751.499 292.391C752.91 291.791 754.42 291.531 755.881 292.121C756.301 292.301 756.701 292.531 757.052 292.831C757.782 293.432 758.282 294.242 758.462 295.172C758.802 296.993 757.832 298.554 756.611 299.795C755.871 300.555 755.021 301.255 754.18 301.915C755.661 301.945 757.122 302.276 758.222 303.386C758.712 303.886 759.072 304.487 759.273 305.157C759.943 306.948 758.762 308.418 757.362 309.419C756.431 310.079 755.381 310.669 754.37 311.2C751.529 312.69 748.488 313.991 745.466 315.071C743.085 315.922 740.544 316.702 738.023 317.152L728.489 327.227C722.756 333.29 720.295 335.991 713.542 341.553C711.051 343.594 708.06 345.005 704.768 344.495C701.327 343.954 698.595 341.493 696.404 338.942C693.913 336.051 691.772 332.709 689.621 329.568C688.901 328.507 688.231 327.407 687.59 326.306C688.901 335.931 690.262 345.555 691.452 355.199C692.753 366.104 695.044 378.82 693.823 389.625L681.678 497.383H677.416L673.364 557.1C677.316 562.692 680.207 568.975 684.229 574.488L684.339 574.648L684.429 574.818C685.559 576.889 686.15 579.46 684.259 581.331C683.829 581.751 683.318 582.101 682.758 582.341C678.516 584.172 673.174 579.31 670.313 576.659C668.912 575.348 667.551 573.988 666.211 572.627C664.21 570.596 661.629 569.145 659.998 566.774C658.797 565.024 658.307 563.083 658.357 560.982C658.377 560.041 658.387 559.111 658.377 558.17L658.317 555.209H658.487L656.526 497.383H647.742L627.463 557.75H627.383L627.373 558.17C627.353 559.411 627.393 560.642 627.413 561.882C627.423 562.963 627.373 563.983 626.973 565.014C626.183 567.024 623.972 568.575 622.331 569.896C621.351 570.696 620.39 571.607 619.44 572.447C617.919 573.787 616.378 575.108 614.778 576.349C611.426 578.97 604.653 584.002 600.611 580.02C598.73 578.149 599.311 575.578 600.441 573.507L600.531 573.337L600.651 573.177C604.723 567.595 608.795 562.012 612.867 556.43L625.122 497.383H619.86L612.707 388.574C611.786 374.638 616.879 351.588 618.249 336.471C618.279 336.201 618.309 335.751 618.329 335.25C617.279 336.651 616.218 338.462 615.778 339.312C611.376 347.876 606.374 356.19 601.852 364.714C597.13 373.588 593.578 378.83 589.316 387.664C586.645 393.206 584.004 398.749 581.373 404.281C579.332 408.563 579.612 409.594 579.512 413.816C579.462 415.887 579.192 417.978 578.942 420.018C578.782 421.289 578.601 422.64 578.491 423.98C578.291 426.561 578.101 432.324 573.679 430.573C571.298 429.633 570.638 427.012 569.817 424.861C569.787 424.791 569.747 424.681 569.687 424.551C568.297 425.781 566.906 427.362 565.896 428.472C563.815 430.753 562.464 432.124 559.723 433.595C555.561 435.816 555.251 437.646 554.371 433.014C553.67 429.343 557.252 422.23 558.853 418.908C559.813 416.937 560.793 414.986 561.764 413.015C562.424 411.675 563.125 410.264 563.675 408.863C565.916 399.739 568.607 390.635 571.418 381.681C574.67 371.357 575.23 367.595 579.512 358.461C588.176 339.973 596.059 321.124 604.623 302.586C600.031 301.405 594.339 299.354 590.437 296.903C566.386 281.746 560.473 243.559 560.473 217.518C560.463 210.955 561.624 204.482 563.775 198.289C567.637 187.204 574.59 177.32 583.124 169.326C591.977 161.032 602.872 154.459 614.458 150.818C624.952 147.516 636.457 146.526 647.122 149.587C652.445 147.736 657.997 147.056 663.62 147.616C676.335 148.887 687.54 156.25 696.094 165.394C705.749 175.709 712.792 188.955 716.773 202.461L717.244 204.072Z" fill="#664A27"/>
<path fill-rule="evenodd" clip-rule="evenodd" d="M731.36 313.931C726.678 310.98 725.707 308.318 724.547 303.406C723.266 297.984 721.466 289.58 722.956 289.1C725.367 288.319 726.218 292.101 727.798 294.812C729.989 298.554 729.949 298.314 732.07 294.312C734.601 289.55 738.163 281.957 739.714 282.827C741.795 283.997 736.792 293.562 739.664 294.712C741.064 295.282 747.057 284.368 749.858 286.549C752.76 288.81 742.785 296.663 744.936 299.024C746.207 300.635 752.71 292.981 755.191 295.062C757.892 297.313 747.057 302.186 747.777 304.457C748.428 306.548 755.761 303.136 756.531 306.107C757.132 307.368 736.582 317.222 731.36 313.931Z" fill="#FFD9C2"/>
<path fill-rule="evenodd" clip-rule="evenodd" d="M702.907 237.647C711.371 232.604 722.846 230.854 721.686 214.946C721.366 210.615 718.814 207.663 714.793 206.183C711.891 206.062 709.61 206.753 707.729 207.993C703.858 210.544 701.697 215.387 699.486 220.149L698.615 215.287C690.832 198.879 676.075 185.523 651.304 175.869C643.561 195.368 619.9 216.207 589.937 239.628C590.737 249.352 592.107 256.535 599.451 263.178C631.305 292.001 686.82 278.515 702.907 237.647Z" fill="#FFD9C2"/>
<path fill-rule="evenodd" clip-rule="evenodd" d="M615.348 385.303H690.922C689.791 408.873 683.028 458.086 679.087 494.472H622.581C620.17 458.086 616.188 416.377 615.348 385.303Z" fill="#FF7F74"/>
<path fill-rule="evenodd" clip-rule="evenodd" d="M628.024 497.123H644.521L625.372 554.849H616.168L628.024 497.123Z" fill="#FFD9C2"/>
<path fill-rule="evenodd" clip-rule="evenodd" d="M659.778 497.043H674.775L670.603 554.899H661.389L659.778 497.043Z" fill="#FFD9C2"/>
<path fill-rule="evenodd" clip-rule="evenodd" d="M615.238 558.12C618.319 558.12 621.391 558.12 624.472 558.12C624.352 564.673 625.483 563.613 620.51 567.635C617.759 569.856 606.154 581.401 602.662 577.949C602.112 577.409 602.152 576.439 602.992 574.888C607.074 569.295 611.156 563.713 615.238 558.12Z" fill="#FF7F74"/>
<path fill-rule="evenodd" clip-rule="evenodd" d="M670.513 558.12C667.431 558.12 664.36 558.12 661.279 558.12C661.299 559.321 661.279 560.271 661.259 561.042C661.148 565.984 664.83 567.094 668.282 570.586C672.604 574.968 679.537 581.911 682.218 579.26C682.768 578.72 682.718 577.749 681.878 576.199C677.796 570.606 674.594 563.713 670.513 558.12Z" fill="#FF7F74"/>
<path fill-rule="evenodd" clip-rule="evenodd" d="M686.39 286.308C681.097 284.107 676.505 281.846 669.402 280.226C666.481 289.88 661.769 297.463 654.105 301.695C649.293 298.864 643.591 296.183 637.758 282.797C622.591 283.607 618.049 281.196 612.067 293.622C600.401 317.823 590.647 342.154 578.982 366.354C586.175 366.815 590.977 369.446 594.269 373.408C599.641 361.692 607.134 349.777 613.197 337.982C616.388 331.769 622.151 325.686 621.151 336.731C619.75 352.048 616.438 367.535 615.548 382.802C640.749 382.802 665.941 382.802 691.132 382.802C690.052 363.713 686.93 343.124 684.469 324.896C682.158 307.868 687.67 321.574 692.022 327.927C698.635 337.582 703.618 345.955 711.691 339.302C714.562 336.941 717.214 334.76 720.705 331.889C717.084 329.308 714.322 325.636 712.582 321.844C711.891 322.275 710.841 323.125 710.461 323.365C704.288 327.307 708.01 323.915 707.159 322.555C706.659 321.774 706.179 320.674 705.619 319.343C700.436 307.158 692.583 288.89 686.39 286.308Z" fill="#FFDF75"/>
<path fill-rule="evenodd" clip-rule="evenodd" d="M578.291 370.016C585.324 370.016 589.166 372.407 591.967 375.579C587.575 384.703 583.194 393.817 578.812 402.941C577.631 405.392 576.3 408.603 576.541 411.385C576.911 415.737 575.52 420.739 575.46 425.421C575.45 426.882 575.41 430.043 573.659 426.691C572.709 424.861 572.199 421.609 570.278 420.549C566.006 422.83 561.494 430.193 557.222 432.474C556.472 428.512 564.465 414.916 566.456 409.734C569.117 398.849 573.769 383.302 578.291 370.016Z" fill="#FFD9C2"/>
<path fill-rule="evenodd" clip-rule="evenodd" d="M714.242 320.984C716.173 325.386 718.784 328.197 721.806 330.068L738.293 312.64L726.788 308.538L714.242 320.984Z" fill="#FFD9C2"/>
<path fill-rule="evenodd" clip-rule="evenodd" d="M616.649 370.996H690.242C690.442 373.207 690.632 375.398 690.792 377.589H615.948C616.138 375.398 616.378 373.197 616.649 370.996Z" fill="#FEFEFE"/>
<path fill-rule="evenodd" clip-rule="evenodd" d="M617.819 362.143H689.341C689.531 363.903 689.721 365.664 689.891 367.415H617.099C617.329 365.664 617.569 363.903 617.819 362.143Z" fill="#FEFEFE"/>
<path fill-rule="evenodd" clip-rule="evenodd" d="M618.78 355.56H688.571C688.691 356.56 688.811 357.56 688.931 358.571H618.339L618.78 355.56Z" fill="#FEFEFE"/>
<path fill-rule="evenodd" clip-rule="evenodd" d="M640.689 282.287C649.943 281.997 658.787 280.336 665.691 277.575L666.921 278.445L666.631 279.395C664.38 286.839 660.728 294.052 654.095 298.334C652.024 297.113 650.174 295.933 648.333 294.142C645.011 290.891 642.58 286.519 640.689 282.287Z" fill="#FFD9C2"/>
<path fill-rule="evenodd" clip-rule="evenodd" d="M659.308 200.45L673.614 203.221L673.114 201.59C673.114 201.59 662.239 194.657 658.557 197.989C656.757 199.72 659.308 200.45 659.308 200.45Z" fill="#624723"/>
<path fill-rule="evenodd" clip-rule="evenodd" d="M646.282 240.738C646.282 240.738 651.054 243.069 649.783 245.3C648.513 247.521 644.881 244.65 644.081 242.919C643.291 241.178 644.581 240.138 646.282 240.738Z" fill="#664A27"/>
<path fill-rule="evenodd" clip-rule="evenodd" d="M658.697 211.365C658.697 211.365 661.669 214.746 664.47 216.187C667.261 217.628 663.88 222.36 661.008 219.799C661.018 219.749 655.486 210.955 658.697 211.365Z" fill="#624723"/>
<path fill-rule="evenodd" clip-rule="evenodd" d="M666.891 214.006C670.603 213.926 673.694 217.498 673.794 221.99C673.894 226.482 670.963 230.183 667.261 230.273C663.55 230.353 660.458 226.782 660.358 222.29C660.258 217.798 663.179 214.096 666.891 214.006Z" fill="#624723"/>
<path fill-rule="evenodd" clip-rule="evenodd" d="M666.141 216.917C668.262 216.557 670.393 218.758 670.923 221.84C671.443 224.921 670.143 227.712 668.032 228.072C665.911 228.433 663.77 226.222 663.249 223.14C662.729 220.059 664.02 217.278 666.141 216.917Z" fill="#579CD7"/>
<path fill-rule="evenodd" clip-rule="evenodd" d="M670.123 216.057C672.254 216.017 674.094 217.558 674.415 219.669C674.765 221.98 673.174 224.141 670.853 224.501C668.542 224.851 666.371 223.26 666.021 220.939C666.001 220.759 665.981 220.579 665.981 220.399C665.931 218.268 667.471 216.427 669.582 216.107C669.762 216.077 669.942 216.067 670.123 216.057Z" fill="#FFD9C2"/>
<path fill-rule="evenodd" clip-rule="evenodd" d="M608.925 217.728C608.925 217.728 611.906 221.109 614.698 222.55C617.489 223.991 614.107 228.723 611.236 226.161C611.246 226.101 605.714 217.318 608.925 217.728Z" fill="#624723"/>
<path fill-rule="evenodd" clip-rule="evenodd" d="M617.119 220.369C620.83 220.289 623.922 223.86 624.022 228.352C624.122 232.834 621.201 236.546 617.489 236.626C613.777 236.716 610.686 233.145 610.586 228.653C610.486 224.161 613.417 220.449 617.119 220.369Z" fill="#624723"/>
<path fill-rule="evenodd" clip-rule="evenodd" d="M616.368 223.27C618.489 222.92 620.63 225.121 621.151 228.202C621.671 231.284 620.37 234.075 618.259 234.435C616.138 234.785 613.997 232.584 613.477 229.503C612.957 226.422 614.247 223.63 616.368 223.27Z" fill="#579CD7"/>
<path fill-rule="evenodd" clip-rule="evenodd" d="M620.35 222.42C622.481 222.37 624.322 223.92 624.642 226.021C624.992 228.342 623.402 230.503 621.081 230.854C618.77 231.214 616.599 229.613 616.248 227.302C616.228 227.122 616.208 226.942 616.208 226.762C616.158 224.621 617.699 222.79 619.81 222.47C619.99 222.44 620.17 222.42 620.35 222.42Z" fill="#FFD9C2"/>
<path fill-rule="evenodd" clip-rule="evenodd" d="M713.982 203.281C703.928 169.116 675.325 142.094 647.212 152.648C613.027 141.994 563.365 175.489 563.375 217.518C563.375 235.566 566.616 278.455 591.987 294.442C595.389 296.583 601.212 298.754 605.884 299.915C607.064 297.393 608.255 294.872 609.465 292.371C614.598 281.716 619.86 280.406 627.863 280.156C621 278.195 606.224 272.772 602.382 269.291C600.701 268.06 599.071 266.73 597.51 265.319C589.496 258.066 587.906 250.192 587.055 239.868L586.925 238.317L588.156 237.357C601.432 226.972 614.968 216.117 626.913 204.232C635.127 196.058 644.301 185.693 648.613 174.808L649.673 172.137L652.354 173.178C672.293 180.951 690.322 192.766 700.276 212.125C701.807 209.564 703.647 207.213 706.139 205.582C708.53 204.012 711.181 203.311 713.982 203.281ZM669.282 276.064L670.813 277.595C676.855 279.055 681.768 281.256 687.5 283.647C689.721 284.568 692.082 287.089 694.413 290.46C696.564 287.429 701.066 280.846 702.367 278.415C709.56 264.989 714.382 247.011 716.273 233.705C712.802 236.106 708.89 237.577 705.208 239.648C700.176 251.863 691.602 261.868 681.067 269.031C678.846 270.531 671.663 274.813 669.282 276.064Z" fill="#C47A39"/>
<path d="M637.888 262.688C637.128 262.388 636.768 261.537 637.068 260.777C637.358 260.027 638.218 259.656 638.969 259.957C643.02 261.567 646.702 262.058 650.054 261.517C653.375 260.987 656.406 259.426 659.178 256.935C659.778 256.385 660.718 256.435 661.259 257.045C661.799 257.646 661.759 258.586 661.149 259.126C657.957 261.998 654.426 263.788 650.514 264.419C646.642 265.049 642.44 264.499 637.888 262.688Z" fill="#664A27"/>
<path fill-rule="evenodd" clip-rule="evenodd" d="M617.129 241.178C622.351 243.979 624.862 249.452 622.731 253.424C620.61 257.385 614.658 258.336 609.445 255.545C604.233 252.743 601.722 247.271 603.843 243.299C605.964 239.337 611.916 238.387 617.129 241.178Z" fill="#FFB9BB"/>
<path fill-rule="evenodd" clip-rule="evenodd" d="M675.335 229.373C670.143 232.224 667.692 237.727 669.852 241.668C672.013 245.61 677.966 246.501 683.158 243.659C688.341 240.818 690.802 235.316 688.641 231.364C686.48 227.422 680.527 226.532 675.335 229.373Z" fill="#FFB9BB"/>
<path d="M628.484 175.529C628.924 174.838 629.834 174.628 630.515 175.059C631.205 175.499 631.415 176.409 630.985 177.089C625.622 185.633 619.77 193.287 613.017 199.96C606.234 206.653 598.57 212.335 589.596 216.907C588.876 217.278 587.986 216.997 587.615 216.267C587.245 215.537 587.535 214.656 588.256 214.286C596.96 209.844 604.383 204.332 610.946 197.859C617.529 191.366 623.241 183.883 628.484 175.529Z" fill="#664A27"/>
<path d="M604.233 180.791C604.783 180.191 605.704 180.141 606.314 180.681C606.914 181.231 606.954 182.162 606.414 182.762C606.184 183.012 606.224 182.982 605.764 183.502C603.393 186.164 599.691 190.325 592.618 194.687C591.927 195.108 591.017 194.897 590.597 194.207C590.167 193.517 590.377 192.606 591.067 192.186C597.76 188.054 601.292 184.083 603.563 181.541L604.233 180.791Z" fill="#664A27"/>
<path d="M696.104 113.471L725.277 60.8673" stroke="#5C6366" stroke-width="2.0009" stroke-miterlimit="22.9256" stroke-linecap="round" stroke-linejoin="round" stroke-dasharray="3.99 5.99"/>
<path d="M765.535 167.085L948.367 -7.62939e-06" stroke="#5C6366" stroke-width="2.0009" stroke-miterlimit="22.9256" stroke-linecap="round" stroke-linejoin="round" stroke-dasharray="3.99 5.99"/>
<path d="M811.146 238.317L1078.46 116.382" stroke="#5C6366" stroke-width="2.0009" stroke-miterlimit="22.9256" stroke-linecap="round" stroke-linejoin="round" stroke-dasharray="3.99 5.99"/>
<path d="M833.176 302.966L1012.6 270.992" stroke="#5C6366" stroke-width="2.0009" stroke-miterlimit="22.9256" stroke-linecap="round" stroke-linejoin="round" stroke-dasharray="3.99 5.99"/>
<path d="M835.177 364.233L1126.79 378.66" stroke="#5C6366" stroke-width="2.0009" stroke-miterlimit="22.9256" stroke-linecap="round" stroke-linejoin="round" stroke-dasharray="3.99 5.99"/>
<path d="M824.172 430.483L1022.85 491.401" stroke="#5C6366" stroke-width="2.0009" stroke-miterlimit="22.9256" stroke-linecap="round" stroke-linejoin="round" stroke-dasharray="3.99 5.99"/>
<path d="M768.407 529.768L818.309 573.547" stroke="#5C6366" stroke-width="2.0009" stroke-miterlimit="22.9256" stroke-linecap="round" stroke-linejoin="round" stroke-dasharray="3.99 5.99"/>
<path d="M432.376 112.651L403.653 60.8673" stroke="#5C6366" stroke-width="2.0009" stroke-miterlimit="22.9256" stroke-linecap="round" stroke-linejoin="round" stroke-dasharray="3.99 5.99"/>
<path d="M363.315 167.015L180.563 -7.62939e-06" stroke="#5C6366" stroke-width="2.0009" stroke-miterlimit="22.9256" stroke-linecap="round" stroke-linejoin="round" stroke-dasharray="3.99 5.99"/>
<path d="M319.695 239.187L50.4746 116.382" stroke="#5C6366" stroke-width="2.0009" stroke-miterlimit="22.9256" stroke-linecap="round" stroke-linejoin="round" stroke-dasharray="3.99 5.99"/>
<path d="M298.516 303.456L107.69 269.691" stroke="#5C6366" stroke-width="2.0009" stroke-miterlimit="22.9256" stroke-linecap="round" stroke-linejoin="round" stroke-dasharray="3.99 5.99"/>
<path d="M293.474 363.213L1.2124 377.669" stroke="#5C6366" stroke-width="2.0009" stroke-miterlimit="22.9256" stroke-linecap="round" stroke-linejoin="round" stroke-dasharray="3.99 5.99"/>
<path d="M305.259 430.323L106.079 491.401" stroke="#5C6366" stroke-width="2.0009" stroke-miterlimit="22.9256" stroke-linecap="round" stroke-linejoin="round" stroke-dasharray="3.99 5.99"/>
<path d="M326.428 478.895L57.3977 623.62" stroke="#5C6366" stroke-width="2.0009" stroke-miterlimit="22.9256" stroke-linecap="round" stroke-linejoin="round" stroke-dasharray="3.99 5.99"/>
<path d="M360.514 529.768L310.621 573.547" stroke="#5C6366" stroke-width="2.0009" stroke-miterlimit="22.9256" stroke-linecap="round" stroke-linejoin="round" stroke-dasharray="3.99 5.99"/>
<path d="M808.265 478.895L1077.3 623.62" stroke="#5C6366" stroke-width="2.0009" stroke-miterlimit="22.9256" stroke-linecap="round" stroke-linejoin="round" stroke-dasharray="3.99 5.99"/>
</svg>
