<svg width="94" height="94" viewBox="0 0 94 94" fill="none" xmlns="http://www.w3.org/2000/svg">
<g clip-path="url(#clip0_85_1131)">
<path d="M47.0487 93.0259C72.4412 93.0259 93.0259 72.4412 93.0259 47.0487C93.0259 21.6562 72.4412 1.0715 47.0487 1.0715C21.6562 1.0715 1.07153 21.6562 1.07153 47.0487C1.07153 72.4412 21.6562 93.0259 47.0487 93.0259Z" fill="#FEFEFE" stroke="#24743B" stroke-width="2.0456" stroke-miterlimit="22.9256" stroke-linecap="round" stroke-linejoin="round"/>
<path fill-rule="evenodd" clip-rule="evenodd" d="M40.3275 26.6902C40.1327 23.7679 38.9638 22.3067 37.6974 22.0145C33.2166 21.0404 25.6187 27.9565 21.0404 40.8145C18.7026 47.4383 17.6311 55.6207 19.3845 65.2642C20.2612 69.6477 21.4301 72.9596 23.086 74.1285C24.3524 75.1026 25.8135 74.8104 27.7617 72.7648C33.8011 66.5306 40.3275 66.2383 42.3731 62.6342C42.9575 61.5627 40.4249 26.9824 40.3275 26.6902V26.6902Z" stroke="#24743B" stroke-width="2.0456" stroke-miterlimit="22.9256" stroke-linecap="round" stroke-linejoin="round"/>
<path d="M38.1844 39.4508C37.5026 40.1326 36.8207 41.2041 36.2362 42.4705C33.5088 48.315 37.2103 57.1793 33.1191 63.5109" stroke="#24743B" stroke-width="2.0456" stroke-miterlimit="22.9256" stroke-linecap="round" stroke-linejoin="round"/>
<path d="M35.0674 57.9585C36.2363 59.4197 37.4052 60.3938 38.5741 60.7834" stroke="#24743B" stroke-width="2.0456" stroke-miterlimit="22.9256" stroke-linecap="round" stroke-linejoin="round"/>
<path d="M35.1647 50.2632C32.4372 52.601 28.9305 53.9648 26.0082 55.5233C25.0341 56.1078 24.3523 57.0819 23.6704 57.9585" stroke="#24743B" stroke-width="2.0456" stroke-miterlimit="22.9256" stroke-linecap="round" stroke-linejoin="round"/>
<path d="M29.5151 53.7699C29.8073 56.3026 29.4177 58.1534 28.3462 59.2249" stroke="#24743B" stroke-width="2.0456" stroke-miterlimit="22.9256" stroke-linecap="round" stroke-linejoin="round"/>
<path d="M35.1648 50.2632C34.6778 49.4839 33.9959 48.9969 33.2166 48.5098C31.3658 47.6332 28.2487 48.6073 26.7876 46.9513" stroke="#24743B" stroke-width="2.0456" stroke-miterlimit="22.9256" stroke-linecap="round" stroke-linejoin="round"/>
<path d="M30.6841 33.4114C32.5349 34.3855 32.6323 38.1845 33.509 40.4249C34.0934 41.6912 35.1649 42.3731 35.652 43.1523" stroke="#24743B" stroke-width="2.0456" stroke-miterlimit="22.9256" stroke-linecap="round" stroke-linejoin="round"/>
<path d="M26.1057 41.2041C28.3461 40.0352 30.8788 40.1326 33.5088 40.4249" stroke="#24743B" stroke-width="2.0456" stroke-miterlimit="22.9256" stroke-linecap="round" stroke-linejoin="round"/>
<path d="M43.9316 19.3845C44.1264 20.2611 44.4186 21.0404 44.6134 21.9171C43.6393 23.3782 43.7367 24.8394 44.6134 26.1057C43.8341 27.5668 43.7367 28.9306 44.6134 30.2943C44.029 30.8788 43.7367 31.8529 43.6393 33.4114C42.4704 33.5088 41.6911 34.4829 41.0093 35.5544" stroke="#24743B" stroke-width="2.0456" stroke-miterlimit="22.9256" stroke-linecap="round" stroke-linejoin="round"/>
<path fill-rule="evenodd" clip-rule="evenodd" d="M53.6726 26.6902C53.9648 23.7679 55.0363 22.3067 56.4 22.0145C60.7835 21.0404 68.3814 27.9565 72.9596 40.8145C75.2974 47.4383 76.3689 55.6207 74.713 65.2642C73.7389 69.6477 72.57 72.9596 71.0114 74.1285C69.7451 75.1026 68.1866 74.8104 66.2384 72.7648C60.2964 66.5306 53.6726 66.2383 51.627 62.6342C51.0425 61.5627 53.6726 26.9824 53.6726 26.6902V26.6902Z" stroke="#24743B" stroke-width="2.0456" stroke-miterlimit="22.9256" stroke-linecap="round" stroke-linejoin="round"/>
<path d="M55.8157 39.4508C56.4975 40.1326 57.2768 41.2041 57.7639 42.4705C60.4913 48.315 56.7898 57.1793 60.881 63.5109" stroke="#24743B" stroke-width="2.0456" stroke-miterlimit="22.9256" stroke-linecap="round" stroke-linejoin="round"/>
<path d="M58.8352 50.2632C61.6601 52.601 65.1668 53.9648 67.9917 55.5233C69.0632 56.1078 69.745 57.0819 70.3295 57.9585" stroke="#24743B" stroke-width="2.0456" stroke-miterlimit="22.9256" stroke-linecap="round" stroke-linejoin="round"/>
<path d="M58.8352 50.2632C59.4197 49.4839 60.1015 48.9969 60.8808 48.5098C62.6342 47.6332 65.7513 48.6073 67.2124 46.9513" stroke="#24743B" stroke-width="2.0456" stroke-miterlimit="22.9256" stroke-linecap="round" stroke-linejoin="round"/>
<path d="M63.316 33.4114C61.5627 34.3855 61.3678 38.1845 60.4912 40.4249C60.0041 41.6912 58.8352 42.3731 58.3481 43.1523" stroke="#24743B" stroke-width="2.0456" stroke-miterlimit="22.9256" stroke-linecap="round" stroke-linejoin="round"/>
<path d="M67.9917 41.2041C65.6539 40.0352 63.1213 40.1326 60.4912 40.4249" stroke="#24743B" stroke-width="2.0456" stroke-miterlimit="22.9256" stroke-linecap="round" stroke-linejoin="round"/>
<path d="M50.1657 19.3845C49.8735 20.2611 49.6787 21.0404 49.3865 21.9171C50.3606 23.3782 50.3606 24.8394 49.3865 26.1057C50.1657 27.5668 50.2632 28.9306 49.3865 30.2943C49.9709 30.8788 50.3606 31.8529 50.3606 33.4114C51.5295 33.5088 52.3088 34.4829 52.9906 35.5544" stroke="#24743B" stroke-width="2.0456" stroke-miterlimit="22.9256" stroke-linecap="round" stroke-linejoin="round"/>
<path d="M41.3015 41.399C42.4704 41.2041 43.4445 40.5223 43.8342 38.7689C44.9057 38.8663 46.0746 38.087 46.172 37.0155C46.7564 37.2104 47.2435 37.2104 47.7305 37.0155C47.8279 38.087 48.9969 38.8663 50.0684 38.7689C50.5554 40.5223 51.4321 41.2041 52.601 41.399" stroke="#24743B" stroke-width="2.0456" stroke-miterlimit="22.9256" stroke-linecap="round" stroke-linejoin="round"/>
</g>
<defs>
<clipPath id="clip0_85_1131">
<rect width="94" height="94" fill="white"/>
</clipPath>
</defs>
</svg>
