<svg width="94" height="94" viewBox="0 0 94 94" fill="none" xmlns="http://www.w3.org/2000/svg">
<path d="M47.035 93.0216C72.4327 93.0216 93.0216 72.4327 93.0216 47.035C93.0216 21.6372 72.4327 1.04834 47.035 1.04834C21.6372 1.04834 1.04834 21.6372 1.04834 47.035C1.04834 72.4327 21.6372 93.0216 47.035 93.0216Z" fill="#FEFEFE" stroke="#24743B" stroke-width="2.02677" stroke-miterlimit="22.9256" stroke-linecap="round" stroke-linejoin="round"/>
<path fill-rule="evenodd" clip-rule="evenodd" d="M46.965 27.4662C46.965 27.4662 58.2869 45.8469 58.2869 53.1851C58.2869 60.5933 53.1851 66.5338 46.965 66.5338C40.675 66.5338 35.6431 60.5933 35.6431 53.1851C35.6431 45.8469 46.965 27.4662 46.965 27.4662V27.4662Z" stroke="#24743B" stroke-width="2.02677" stroke-miterlimit="22.9256" stroke-linecap="round" stroke-linejoin="round"/>
<path d="M38.5784 53.1852C38.5784 57.9376 41.6535 63.5986 46.965 63.5986" stroke="#24743B" stroke-width="2.02677" stroke-miterlimit="22.9256" stroke-linecap="round" stroke-linejoin="round"/>
<path d="M68.2811 64.577C63.2492 70.7272 55.5614 74.6409 46.9651 74.6409C31.6596 74.6409 19.2893 62.2707 19.2893 47.035C19.2893 45.3576 19.4291 43.7502 19.7086 42.1428M27.6759 27.1866C32.7079 22.3643 39.4871 19.3591 46.9651 19.3591C62.2008 19.3591 74.5711 31.7294 74.5711 47.035C74.5711 48.4327 74.5012 49.8305 74.2915 51.1584" stroke="#24743B" stroke-width="2.02677" stroke-miterlimit="22.9256" stroke-linecap="round" stroke-linejoin="round"/>
<path d="M12.7197 48.6424L19.7086 42.1428L26.2781 49.2015" stroke="#24743B" stroke-width="2.02677" stroke-miterlimit="22.9256" stroke-linecap="round" stroke-linejoin="round"/>
<path d="M81.2803 44.6588L74.2915 51.1584L67.7919 44.1696" stroke="#24743B" stroke-width="2.02677" stroke-miterlimit="22.9256" stroke-linecap="round" stroke-linejoin="round"/>
</svg>
