<svg width="94" height="94" viewBox="0 0 94 94" fill="none" xmlns="http://www.w3.org/2000/svg">
<path d="M47.0647 93.0949C72.4865 93.0949 93.0949 72.4865 93.0949 47.0646C93.0949 21.6428 72.4865 1.03439 47.0647 1.03439C21.6429 1.03439 1.03442 21.6428 1.03442 47.0646C1.03442 72.4865 21.6429 93.0949 47.0647 93.0949Z" fill="#FEFEFE" stroke="#24743B" stroke-width="1.93948" stroke-miterlimit="22.9256" stroke-linecap="round" stroke-linejoin="round"/>
<path d="M45.3838 15.6451C45.3838 19.0069 45.3838 22.2393 45.3838 25.4718C45.3838 30.9023 47.7112 31.6781 48.7456 36.5915C50.1679 43.9615 44.9959 50.2971 37.4966 50.8143C31.5489 49.5213 25.3425 47.0647 20.1706 51.0729C16.9381 53.5296 16.1624 56.3741 16.1624 60.1238C16.1624 63.7442 16.1624 67.3645 16.1624 70.9849" stroke="#24743B" stroke-width="1.93948" stroke-miterlimit="22.9256" stroke-linecap="round" stroke-linejoin="round"/>
<path d="M51.7194 15.6451C51.7194 18.619 51.7194 21.5928 51.7194 24.4374C51.8487 25.8597 52.3659 26.7648 53.1417 27.282C56.2449 29.7387 59.4774 25.8597 63.227 25.2132C69.9505 23.9202 75.6397 27.5406 77.3205 34.2641C80.0358 45.2545 72.4072 57.2792 63.7442 63.4856C58.8309 66.8473 53.1417 68.9161 46.9354 69.8212C43.1857 70.0798 40.0826 69.5626 37.4966 68.5282C32.1954 66.3301 30.6438 59.6066 27.0234 59.8652C24.3082 60.1238 23.4031 62.7098 23.4031 64.9078C23.4031 66.8473 23.4031 68.9161 23.4031 70.9849" stroke="#24743B" stroke-width="1.93948" stroke-miterlimit="22.9256" stroke-linecap="round" stroke-linejoin="round"/>
<path d="M48.6162 42.022C50.4264 41.5048 52.3659 41.3755 54.4346 41.3755C61.4168 41.3755 65.2957 49.0041 76.8033 45.6424" stroke="#24743B" stroke-width="1.93948" stroke-miterlimit="22.9256" stroke-linecap="round" stroke-linejoin="round"/>
<path d="M53.1417 52.6245C54.7127 52.6245 55.9863 51.3509 55.9863 49.7799C55.9863 48.2089 54.7127 46.9353 53.1417 46.9353C51.5707 46.9353 50.2971 48.2089 50.2971 49.7799C50.2971 51.3509 51.5707 52.6245 53.1417 52.6245Z" stroke="#24743B" stroke-width="1.93948" stroke-miterlimit="22.9256" stroke-linecap="round" stroke-linejoin="round"/>
<path d="M49.78 59.8652C50.9225 59.8652 51.8487 58.939 51.8487 57.7964C51.8487 56.6539 50.9225 55.7276 49.78 55.7276C48.6374 55.7276 47.7112 56.6539 47.7112 57.7964C47.7112 58.939 48.6374 59.8652 49.78 59.8652Z" stroke="#24743B" stroke-width="1.93948" stroke-miterlimit="22.9256" stroke-linecap="round" stroke-linejoin="round"/>
<path d="M59.2187 56.762C60.3612 56.762 61.2874 55.8358 61.2874 54.6933C61.2874 53.5507 60.3612 52.6245 59.2187 52.6245C58.0761 52.6245 57.1499 53.5507 57.1499 54.6933C57.1499 55.8358 58.0761 56.762 59.2187 56.762Z" stroke="#24743B" stroke-width="1.93948" stroke-miterlimit="22.9256" stroke-linecap="round" stroke-linejoin="round"/>
</svg>
