<svg width="94" height="94" viewBox="0 0 94 94" fill="none" xmlns="http://www.w3.org/2000/svg">
<path d="M47 93.0231C72.4179 93.0231 93.0231 72.4179 93.0231 47C93.0231 21.5822 72.4179 0.976929 47 0.976929C21.5822 0.976929 0.976929 21.5822 0.976929 47C0.976929 72.4179 21.5822 93.0231 47 93.0231Z" fill="#FEFEFE" stroke="#24743B" stroke-width="1.95381" stroke-miterlimit="22.9256" stroke-linecap="round" stroke-linejoin="round"/>
<path d="M71.8568 37.231C76.7413 37.231 77.7183 32.7806 77.8268 30.5012C77.9353 28.9816 77.1755 26.485 75.6559 24.7483C73.7021 22.6859 71.8568 23.0116 69.3603 23.0116C67.2979 23.0116 65.3441 23.0116 63.2818 23.0116C57.6374 23.0116 53.0785 19.321 47 19.321C40.8129 19.321 36.3626 23.0116 30.7183 23.0116C28.7644 23.0116 26.7021 23.0116 24.6397 23.0116C22.1432 23.0116 20.2979 22.6859 18.4527 24.7483C16.8245 26.485 16.1732 28.9816 16.1732 30.5012C16.2818 32.7806 17.2587 37.231 22.2517 37.231" stroke="#24743B" stroke-width="1.95381" stroke-miterlimit="22.9256" stroke-linecap="round" stroke-linejoin="round"/>
<path d="M63.2818 23.0116C58.7229 27.4619 56.1178 33.2148 54.164 39.4019C52.8614 43.3095 52.5358 44.6121 52.5358 48.7368C52.4273 60.0255 49.6051 61.1109 49.6051 66.2125C49.6051 69.0347 49.6051 71.8569 49.6051 74.679" stroke="#24743B" stroke-width="1.95381" stroke-miterlimit="22.9256" stroke-linecap="round" stroke-linejoin="round"/>
<path d="M66.3211 41.2471C69.3784 41.2471 71.8569 39.449 71.8569 37.2309C71.8569 35.0129 69.3784 33.2148 66.3211 33.2148C63.2637 33.2148 60.7853 35.0129 60.7853 37.2309C60.7853 39.449 63.2637 41.2471 66.3211 41.2471Z" stroke="#24743B" stroke-width="1.95381" stroke-miterlimit="22.9256" stroke-linecap="round" stroke-linejoin="round"/>
<path d="M30.7183 23.0116C35.3857 27.4619 37.9908 33.2148 39.9446 39.4019C41.1386 43.3095 41.5728 44.6121 41.5728 48.7368C41.5728 60.0255 44.5035 61.1109 44.5035 66.2125C44.5035 69.0347 44.5035 71.8569 44.5035 74.679" stroke="#24743B" stroke-width="1.95381" stroke-miterlimit="22.9256" stroke-linecap="round" stroke-linejoin="round"/>
<path d="M45.1547 45.3719C43.8522 38.6421 41.8984 29.7414 38.4249 25.9423C40.8129 24.8569 43.5265 24.2056 47 24.097C50.4734 24.2056 53.2956 24.8569 55.575 25.9423C52.1016 29.7414 50.1478 38.6421 48.8452 45.3719" stroke="#24743B" stroke-width="1.95381" stroke-miterlimit="22.9256" stroke-linecap="round" stroke-linejoin="round"/>
<path d="M27.7875 41.2471C30.8448 41.2471 33.3233 39.449 33.3233 37.2309C33.3233 35.0129 30.8448 33.2148 27.7875 33.2148C24.7302 33.2148 22.2517 35.0129 22.2517 37.2309C22.2517 39.449 24.7302 41.2471 27.7875 41.2471Z" stroke="#24743B" stroke-width="1.95381" stroke-miterlimit="22.9256" stroke-linecap="round" stroke-linejoin="round"/>
</svg>
