<svg width="94" height="94" viewBox="0 0 94 94" fill="none" xmlns="http://www.w3.org/2000/svg">
<path d="M47 92.9478C72.3763 92.9478 92.9478 72.3762 92.9478 47C92.9478 21.6237 72.3763 1.05223 47 1.05223C21.6238 1.05223 1.05225 21.6237 1.05225 47C1.05225 72.3762 21.6238 92.9478 47 92.9478Z" fill="#FEFEFE" stroke="#24743B" stroke-width="1.98756" stroke-miterlimit="22.9256" stroke-linecap="round" stroke-linejoin="round"/>
<path d="M61.6145 27.592C57.9901 27.592 54.3657 27.592 50.7414 27.592C47.4677 27.592 45.2463 28.4105 43.2588 31.0995C41.8558 32.8532 40.6866 34.7239 39.4006 36.4776C37.0623 39.6343 33.7886 42.0896 32.8533 46.0647C31.5672 50.7413 31.918 56.8209 33.0871 59.51C35.0747 63.7189 37.413 67.1095 40.5697 69.5647C42.3234 71.0846 44.311 72.2537 46.4155 73.0721C51.3259 74.9428 55.0672 74.592 60.2115 74.592C63.8359 74.3582 65.4727 72.2537 65.7065 68.9801C65.7065 62.7836 65.7065 56.704 65.7065 50.6244C65.7065 48.2861 65.4727 47.1169 64.3035 45.1294C62.1991 40.9204 58.2239 38.3483 54.5996 35.3085C56.9379 35.3085 59.2762 35.3085 61.6145 35.3085" stroke="#24743B" stroke-width="1.98756" stroke-miterlimit="22.9256" stroke-linecap="round" stroke-linejoin="round"/>
<path d="M31.684 19.408C31.684 22.4478 31.684 25.6045 31.684 28.7612C31.684 31.2164 31.5671 31.5672 30.7487 34.0224C28.5273 40.3358 27.1243 43.1418 29.4627 50.8582C30.5149 54.2488 31.801 56.9378 33.087 59.51M37.9975 38.1144C37.9975 31.9179 37.9975 25.6045 37.9975 19.408V38.1144Z" stroke="#24743B" stroke-width="1.98756" stroke-miterlimit="22.9256" stroke-linecap="round" stroke-linejoin="round"/>
<path d="M34.0225 43.1418C34.1394 49.3383 36.5946 52.8458 40.3359 54.7164" stroke="#24743B" stroke-width="1.98756" stroke-miterlimit="22.9256" stroke-linecap="round" stroke-linejoin="round"/>
<path d="M37.0623 52.2612V57.2886H37.1792" stroke="#24743B" stroke-width="1.98756" stroke-miterlimit="22.9256" stroke-linecap="round" stroke-linejoin="round"/>
<path d="M54.5994 35.3085C52.378 38.9328 49.3382 41.7388 52.9626 45.597C55.7686 48.7537 63.9527 47.5846 65.7064 52.612" stroke="#24743B" stroke-width="1.98756" stroke-miterlimit="22.9256" stroke-linecap="round" stroke-linejoin="round"/>
<path d="M51.4429 43.2587C53.4304 50.2736 58.4578 48.8706 58.4578 63.3682C58.4578 64.5373 58.4578 65.8234 58.4578 67.2264" stroke="#24743B" stroke-width="1.98756" stroke-miterlimit="22.9256" stroke-linecap="round" stroke-linejoin="round"/>
<path d="M58.4578 62.0821L53.3135 67.2264" stroke="#24743B" stroke-width="1.98756" stroke-miterlimit="22.9256" stroke-linecap="round" stroke-linejoin="round"/>
<path d="M58.2239 58.3408L62.3159 62.0821" stroke="#24743B" stroke-width="1.98756" stroke-miterlimit="22.9256" stroke-linecap="round" stroke-linejoin="round"/>
<path d="M41.9727 19.408C41.9727 21.0448 41.9727 22.7985 41.9727 24.4353C40.4528 25.4876 39.1667 27.0075 37.9976 28.7612" stroke="#24743B" stroke-width="1.98756" stroke-miterlimit="22.9256" stroke-linecap="round" stroke-linejoin="round"/>
<path d="M45.7139 19.408C45.7139 20.5771 45.7139 21.8632 45.7139 23.1493C46.7661 23.1493 47.8183 23.1493 48.8706 23.1493C51.2089 24.3184 53.0795 25.8383 54.2487 27.592" stroke="#24743B" stroke-width="1.98756" stroke-miterlimit="22.9256" stroke-linecap="round" stroke-linejoin="round"/>
<path d="M48.8706 23.1493V19.408" stroke="#24743B" stroke-width="1.98756" stroke-miterlimit="22.9256" stroke-linecap="round" stroke-linejoin="round"/>
</svg>
