<svg width="94" height="94" viewBox="0 0 94 94" fill="none" xmlns="http://www.w3.org/2000/svg">
<path d="M47.0001 92.934C72.3687 92.934 92.9341 72.3687 92.9341 47C92.9341 21.6313 72.3687 1.06598 47.0001 1.06598C21.6314 1.06598 1.06604 21.6313 1.06604 47C1.06604 72.3687 21.6314 92.934 47.0001 92.934Z" fill="#FEFEFE" stroke="#24743B" stroke-width="2.03505" stroke-miterlimit="22.9256" stroke-linecap="round" stroke-linejoin="round"/>
<path d="M41.2825 30.1381C35.565 30.7196 34.499 33.9175 34.499 35.7588C34.499 40.701 34.499 45.6433 34.499 50.5856C34.4021 51.7484 34.7897 52.4268 35.565 52.7175M48.9382 40.4103C48.9382 50.6825 48.9382 61.0515 48.9382 71.4206C48.9382 72.9711 48.5506 74.3278 46.6124 74.6185C45.5464 74.7155 44.4805 74.134 43.3176 72.9711M43.3176 72.9711C42.2516 74.0371 41.3794 74.5216 40.4104 74.4247C38.2784 74.4247 37.8908 72.9711 37.8908 71.2268V40.5072M43.3176 72.9711V53.299M45.5464 30.1381C51.3609 30.7196 52.4268 33.9175 52.4268 35.7588M43.4145 19.3814C45.6433 19.3814 47.4846 21.4165 47.4846 24.033C47.4846 26.5526 45.6433 28.6845 43.4145 28.6845C41.1856 28.6845 39.3444 26.5526 39.3444 24.033C39.3444 21.4165 41.1856 19.3814 43.4145 19.3814Z" stroke="#24743B" stroke-width="2.03505" stroke-miterlimit="22.9256" stroke-linecap="round" stroke-linejoin="round"/>
<path fill-rule="evenodd" clip-rule="evenodd" d="M54.7526 57.8536C49.8103 56.0124 45.7402 53.5897 44.7711 49.035C44.7711 44.3835 44.7711 39.732 44.7711 35.0804C48.8412 35.2742 52.0392 33.8206 54.7526 31.301C57.466 33.8206 60.6639 35.2742 64.6371 35.0804C64.6371 39.732 64.6371 44.3835 64.6371 49.035C63.668 53.5897 59.5979 56.0124 54.7526 57.8536Z" fill="#FEFEFE" stroke="#24743B" stroke-width="2.03505" stroke-miterlimit="22.9256" stroke-linecap="round" stroke-linejoin="round"/>
<path d="M48.9382 37.4062L51.8454 39.4412L54.7527 37.4062" stroke="#24743B" stroke-width="2.03505" stroke-miterlimit="22.9256" stroke-linecap="round" stroke-linejoin="round"/>
<path d="M51.8454 44.6742V39.4412H51.7485" stroke="#24743B" stroke-width="2.03505" stroke-miterlimit="22.9256" stroke-linecap="round" stroke-linejoin="round"/>
<path d="M55.9155 40.6041L58.9197 42.6392L61.73 40.701" stroke="#24743B" stroke-width="2.03505" stroke-miterlimit="22.9256" stroke-linecap="round" stroke-linejoin="round"/>
<path d="M58.8227 47.8721V42.6392H58.7258" stroke="#24743B" stroke-width="2.03505" stroke-miterlimit="22.9256" stroke-linecap="round" stroke-linejoin="round"/>
<path d="M50.3918 47.4846L53.396 49.6165L56.2063 47.5815" stroke="#24743B" stroke-width="2.03505" stroke-miterlimit="22.9256" stroke-linecap="round" stroke-linejoin="round"/>
<path d="M53.396 54.7526V49.6165H53.2991" stroke="#24743B" stroke-width="2.03505" stroke-miterlimit="22.9256" stroke-linecap="round" stroke-linejoin="round"/>
</svg>
