<svg width="94" height="94" viewBox="0 0 94 94" fill="none" xmlns="http://www.w3.org/2000/svg">
<g clip-path="url(#clip0_82_992)">
<path d="M47 93.0433C72.429 93.0433 93.0433 72.429 93.0433 47C93.0433 21.571 72.429 0.956757 47 0.956757C21.5711 0.956757 0.956787 21.571 0.956787 47C0.956787 72.429 21.5711 93.0433 47 93.0433Z" fill="#FEFEFE" stroke="#24743B" stroke-width="2.03308" stroke-miterlimit="22.9256" stroke-linecap="round" stroke-linejoin="round"/>
<path d="M40.0636 19.3741C40.0636 23.0814 40.0636 26.9084 40.0636 30.6158C39.944 32.2901 36.9542 34.4428 35.6387 36.5954C33.8448 39.5852 35.2799 43.173 36.8346 45.3257C38.5089 47.4784 41.3791 47.3588 44.6082 45.6845C45.4453 45.2061 46.2825 44.9669 47 44.8473C47.8372 44.9669 48.6743 45.2061 49.3919 45.6845C52.6209 47.3588 55.4911 47.4784 57.1654 45.3257C58.8397 43.173 60.2748 39.5852 58.3613 36.5954C57.1654 34.4428 54.1756 32.2901 54.056 30.6158C54.056 26.9084 54.056 23.0814 54.056 19.3741" stroke="#24743B" stroke-width="2.03308" stroke-miterlimit="22.9256" stroke-linecap="round" stroke-linejoin="round"/>
<path d="M40.1832 74.626C40.1832 69.8422 40.1832 64.9389 40.1832 60.0356C40.0636 58.8397 37.7913 57.4046 36.8346 55.9695C35.8778 54.2952 34.5623 52.0229 35.3994 49.9898C36.3562 47.4784 37.9109 49.631 39.4656 50.229C40.5419 50.7074 41.4987 50.827 42.3358 50.5878C43.8905 50.3486 45.2061 48.4351 47 48.4351C48.9134 48.4351 50.1094 50.3486 51.7837 50.5878C52.5012 50.827 53.458 50.7074 54.6539 50.229C56.2086 49.631 57.7633 47.4784 58.7201 49.9898C59.4376 52.0229 58.2417 54.2952 57.1654 55.9695C56.2086 57.4046 54.0559 58.8397 53.9363 60.0356C53.9363 64.9389 53.9363 69.8422 53.9363 74.626" stroke="#24743B" stroke-width="2.03308" stroke-miterlimit="22.9256" stroke-linecap="round" stroke-linejoin="round"/>
<path d="M50.1094 62.5471V74.626" stroke="#24743B" stroke-width="2.03308" stroke-miterlimit="22.9256" stroke-linecap="round" stroke-linejoin="round"/>
</g>
<defs>
<clipPath id="clip0_82_992">
<rect width="94" height="94" fill="white"/>
</clipPath>
</defs>
</svg>
