<svg width="94" height="94" viewBox="0 0 94 94" fill="none" xmlns="http://www.w3.org/2000/svg">
<path d="M46.9306 92.8892C72.3128 92.8892 92.8892 72.3128 92.8892 46.9306C92.8892 21.5483 72.3128 0.971924 46.9306 0.971924C21.5483 0.971924 0.971924 21.5483 0.971924 46.9306C0.971924 72.3128 21.5483 92.8892 46.9306 92.8892Z" fill="#FEFEFE" stroke="#24743B" stroke-width="1.94387" stroke-miterlimit="22.9256" stroke-linecap="round" stroke-linejoin="round"/>
<path d="M49.2909 27.7696C45.4032 27.7696 41.5154 27.7696 37.4888 27.7696C31.7961 27.7696 27.4918 29.0192 23.1875 33.1846C20.4105 35.9616 18.4667 39.7105 17.3559 44.1536C17.0782 49.1521 16.9393 54.1507 17.217 59.1492C17.3559 62.3427 17.6336 73.3117 21.1048 74.5613C22.2156 74.9778 23.604 74.2836 24.9925 72.8951C32.4903 65.1196 32.9069 62.2038 40.5435 61.9261C50.5405 61.5096 44.1535 51.2348 49.2909 49.8464" stroke="#24743B" stroke-width="1.94387" stroke-miterlimit="22.9256" stroke-linecap="round" stroke-linejoin="round"/>
<path fill-rule="evenodd" clip-rule="evenodd" d="M48.18 27.7696C56.6497 27.7696 65.1194 27.7696 73.4503 27.7696C78.1711 27.7696 81.2258 26.9365 81.3646 33.1846C81.3646 34.2954 81.3646 35.8227 80.6704 36.9335C78.8654 39.9882 73.5892 37.9055 69.0072 40.127C62.3425 43.1817 62.2036 48.4579 55.5389 49.5687C53.0397 49.8464 50.4016 49.8464 47.9023 49.5687C47.0692 49.291 46.375 49.0133 45.9584 48.4579C44.2923 46.9306 44.7088 44.8478 44.8476 42.7651C44.8476 39.5716 44.8476 36.2393 44.8476 33.0458C44.8476 29.9911 45.2642 29.158 48.18 27.7696V27.7696Z" stroke="#24743B" stroke-width="1.94387" stroke-miterlimit="22.9256" stroke-linecap="round" stroke-linejoin="round"/>
<path d="M40.4045 27.7696V19.2998" stroke="#24743B" stroke-width="1.94387" stroke-miterlimit="22.9256" stroke-linecap="round" stroke-linejoin="round"/>
<path d="M44.709 27.7696V19.2998" stroke="#24743B" stroke-width="1.94387" stroke-miterlimit="22.9256" stroke-linecap="round" stroke-linejoin="round"/>
<path d="M52.4844 27.7696V19.2998" stroke="#24743B" stroke-width="1.94387" stroke-miterlimit="22.9256" stroke-linecap="round" stroke-linejoin="round"/>
<path d="M56.7886 27.7696V19.2998" stroke="#24743B" stroke-width="1.94387" stroke-miterlimit="22.9256" stroke-linecap="round" stroke-linejoin="round"/>
<path d="M52.4844 67.2024V49.7075" stroke="#24743B" stroke-width="1.94387" stroke-miterlimit="22.9256" stroke-linecap="round" stroke-linejoin="round"/>
<path d="M56.7886 67.2024V49.1521" stroke="#24743B" stroke-width="1.94387" stroke-miterlimit="22.9256" stroke-linecap="round" stroke-linejoin="round"/>
<path d="M40.4045 67.2023V61.9261" stroke="#24743B" stroke-width="1.94387" stroke-miterlimit="22.9256" stroke-linecap="round" stroke-linejoin="round"/>
<path d="M44.709 67.2024V60.6765" stroke="#24743B" stroke-width="1.94387" stroke-miterlimit="22.9256" stroke-linecap="round" stroke-linejoin="round"/>
<path d="M44.7089 60.6765C44.7089 56.9276 42.9038 53.4564 40.4046 52.3456C35.5449 50.1241 30.6852 53.7341 28.0471 46.9306" stroke="#24743B" stroke-width="1.94387" stroke-miterlimit="22.9256" stroke-linecap="round" stroke-linejoin="round"/>
<path d="M40.4046 52.3456C40.4046 49.1521 39.8492 46.3752 37.4888 44.4313" stroke="#24743B" stroke-width="1.94387" stroke-miterlimit="22.9256" stroke-linecap="round" stroke-linejoin="round"/>
<path d="M41.5155 52.901C38.322 59.1492 29.8523 55.9557 26.5199 59.5657C25.1315 60.9542 24.1595 62.898 23.8818 65.2585H24.0207" stroke="#24743B" stroke-width="1.94387" stroke-miterlimit="22.9256" stroke-linecap="round" stroke-linejoin="round"/>
<path d="M51.2348 49.7075C50.9572 45.9586 51.7902 43.1817 53.1787 41.3767C55.678 38.322 61.5096 41.7932 64.5642 36.7947" stroke="#24743B" stroke-width="1.94387" stroke-miterlimit="22.9256" stroke-linecap="round" stroke-linejoin="round"/>
<path d="M51.5125 34.1566C53.8729 35.545 54.4283 37.7666 53.734 40.8213" stroke="#24743B" stroke-width="1.94387" stroke-miterlimit="22.9256" stroke-linecap="round" stroke-linejoin="round"/>
</svg>
