<svg width="94" height="94" viewBox="0 0 94 94" fill="none" xmlns="http://www.w3.org/2000/svg">
<path d="M47 92.9949C72.4023 92.9949 92.995 72.4023 92.995 47C92.995 21.5977 72.4023 1.00509 47 1.00509C21.5977 1.00509 1.00513 21.5977 1.00513 47C1.00513 72.4023 21.5977 92.9949 47 92.9949Z" fill="#FEFEFE" stroke="#24743B" stroke-width="2.01018" stroke-miterlimit="22.9256" stroke-linecap="round" stroke-linejoin="round"/>
<path d="M65.1875 74.664C63.1294 69.1599 61.3107 63.6558 62.7944 58.1517C68.2506 53.7485 71.4573 48.9623 72.271 43.6497C73.994 32.2108 67.2455 23.9308 56.6202 20.9155C47.5744 18.2831 38.385 18.5224 31.3494 25.4145C29.4349 27.2811 27.9033 29.4827 26.7547 31.9715C25.7974 34.0295 25.5103 36.3269 25.7496 38.5764C26.3718 44.7027 28.5255 42.2617 24.6488 48.9623C23.6437 50.6853 22.5907 52.169 21.5856 53.4613C21.0113 54.6578 22.9257 56.1894 25.606 56.668C26.1803 58.6303 25.4145 59.9226 25.606 60.4491C25.7974 60.8798 26.2282 61.2627 27.4247 61.8849C25.5103 64.7088 26.8982 64.5652 29.5785 67.2454C30.2007 73.3238 31.828 73.4196 36.2791 72.8452C38.8636 72.5102 41.3046 72.5102 43.5062 71.7923C44.7985 71.3136 45.995 70.5957 47.0958 69.3992" stroke="#24743B" stroke-width="2.01018" stroke-miterlimit="22.9256" stroke-linecap="round" stroke-linejoin="round"/>
<path d="M50.829 74.664C49.9197 68.9684 48.0052 62.6029 43.602 60.1141C41.9747 59.2047 32.0673 59.6354 32.3545 60.7841C32.4502 61.2149 33.5989 62.5071 32.7374 62.9379C32.1631 63.2729 27.9034 61.8371 27.2333 61.9328M26.5633 61.3584C28.2384 57.6731 35.2262 55.1843 37.0449 55.9501C37.6671 55.6151 37.6671 55.2322 37.0449 54.7536C34.0297 53.7006 29.0999 55.1843 25.606 56.668M22.9258 55.7108C25.271 51.2597 38.1936 46.4735 43.5062 47C54.9451 48.1965 54.3708 62.2678 55.2802 74.664" stroke="#24743B" stroke-width="2.01018" stroke-miterlimit="22.9256" stroke-linecap="round" stroke-linejoin="round"/>
</svg>
