<svg width="94" height="94" viewBox="0 0 94 94" fill="none" xmlns="http://www.w3.org/2000/svg">
<path d="M46.9611 92.9133C72.3398 92.9133 92.9132 72.3398 92.9132 46.9612C92.9132 21.5825 72.3398 1.00909 46.9611 1.00909C21.5825 1.00909 1.00903 21.5825 1.00903 46.9612C1.00903 72.3398 21.5825 92.9133 46.9611 92.9133Z" fill="#FEFEFE" stroke="#24743B" stroke-width="2.01817" stroke-miterlimit="22.9256" stroke-linecap="round" stroke-linejoin="round"/>
<path d="M65.1247 74.5946C63.1065 69.0834 61.3212 63.5723 62.796 58.1387C68.2295 53.7143 71.412 48.9017 72.2659 43.6235C73.9735 32.2131 67.2204 23.9075 56.5863 20.8803C47.5045 18.3187 38.3451 18.474 31.3592 25.3823C29.4186 27.2453 27.8662 29.4187 26.7019 31.9802C25.7704 33.9984 25.4599 36.327 25.6928 38.578C26.3138 44.7102 28.4872 42.2263 24.6061 48.9017C23.597 50.687 22.5879 52.1619 21.5788 53.4814C20.9579 54.6458 22.8984 56.1206 25.6152 56.6639C26.1585 58.6045 25.3823 59.924 25.6152 60.4674C25.7704 60.8555 26.2361 61.2436 27.4005 61.8646C25.5375 64.659 26.9347 64.5037 29.5739 67.2205C30.1948 73.275 31.8249 73.3526 36.2493 72.8093C40.3633 72.2659 44.0891 72.654 47.0388 69.3163C48.6688 67.531 49.6003 65.2023 51.2304 62.7184" stroke="#24743B" stroke-width="2.01817" stroke-miterlimit="22.9256" stroke-linecap="round" stroke-linejoin="round"/>
<path d="M56.2757 59.0702C56.1205 57.5178 56.0429 53.4814 54.8785 52.55C53.4813 51.308 52.1618 52.0066 50.6093 51.4633C48.5135 50.687 47.3492 49.2898 47.8149 46.8836C48.3583 43.8563 49.9107 43.9339 52.317 43.8563C54.568 43.8563 56.8191 43.7787 59.0701 43.7011C60.7778 43.7011 62.7183 43.7011 62.796 46.1074C62.796 48.0479 61.3211 48.3584 59.8463 48.3584C58.061 48.3584 56.2757 48.3584 54.4128 48.3584" stroke="#24743B" stroke-width="2.01817" stroke-miterlimit="22.9256" stroke-linecap="round" stroke-linejoin="round"/>
<path d="M48.2031 45.564C45.7192 45.3311 41.8381 45.2535 41.9157 41.5277C41.9933 38.2676 45.0206 37.7242 47.5821 37.7242C49.6003 37.6466 51.6184 37.6466 53.6366 37.6466C54.9562 38.1123 55.8876 38.8885 56.5862 39.82" stroke="#24743B" stroke-width="2.01817" stroke-miterlimit="22.9256" stroke-linecap="round" stroke-linejoin="round"/>
<path d="M56.2757 34.6969C56.1205 35.9389 55.189 36.948 53.6366 37.6466" stroke="#24743B" stroke-width="2.01817" stroke-miterlimit="22.9256" stroke-linecap="round" stroke-linejoin="round"/>
<path d="M39.1213 37.3361C40.208 36.1718 40.6738 35.0851 40.6738 33.9984C43.0024 35.0074 45.0206 34.4641 46.4954 31.9026C48.2031 32.9893 49.8331 33.3774 51.4632 32.2131" stroke="#24743B" stroke-width="2.01817" stroke-miterlimit="22.9256" stroke-linecap="round" stroke-linejoin="round"/>
<path d="M41.9157 42.071C40.5186 42.071 40.0528 41.9934 38.7333 41.9934C37.3361 41.9934 36.327 42.071 35.085 41.2172C33.7655 40.3633 33.0669 39.3543 32.9892 38.2675C32.9116 36.2494 33.6102 34.3865 35.9389 33.5326C36.0165 31.4368 36.4822 30.1173 37.2584 29.2634C38.3451 28.1767 39.8976 28.0215 41.7605 28.4096C44.8654 23.9851 47.5045 24.6837 49.9108 28.1767C52.938 26.1586 55.0338 27.4005 56.7415 30.3501C61.5541 29.4963 63.0289 31.9026 62.4079 36.327C66.3666 38.5004 66.4442 41.2948 62.3303 44.6325" stroke="#24743B" stroke-width="2.01817" stroke-miterlimit="22.9256" stroke-linecap="round" stroke-linejoin="round"/>
</svg>
