<svg width="94" height="94" viewBox="0 0 94 94" fill="none" xmlns="http://www.w3.org/2000/svg">
<path d="M47 92.9914C72.4003 92.9914 92.9914 72.4004 92.9914 47C92.9914 21.5997 72.4003 1.00861 47 1.00861C21.5996 1.00861 1.00854 21.5997 1.00854 47C1.00854 72.4004 21.5996 92.9914 47 92.9914Z" fill="#FEFEFE" stroke="#24743B" stroke-width="2.01717" stroke-miterlimit="22.9256" stroke-linecap="round" stroke-linejoin="round"/>
<path fill-rule="evenodd" clip-rule="evenodd" d="M52.2951 65.0536C52.2951 67.9785 49.9249 70.3487 47 70.3487C44.0751 70.3487 41.705 67.9785 41.705 65.0536C41.705 62.5322 44.2264 55.6234 44.6298 51.0848C45.1341 45.2854 46.294 40.4442 48.0086 36.309C51.1352 28.6438 56.1277 23.5504 61.7253 19.3648C57.0859 25.0633 53.1524 31.2661 50.9839 38.7296C49.8241 42.6631 49.1685 46.8991 49.118 51.6395C49.118 57.7414 52.2951 61.7758 52.2951 65.0536V65.0536Z" stroke="#24743B" stroke-width="2.01717" stroke-miterlimit="22.9256" stroke-linecap="round" stroke-linejoin="round"/>
<path d="M24.5085 44.8315C28.6437 44.8315 32.7789 44.8315 36.9141 44.8315C39.2843 44.9324 41.0493 45.9914 41.7049 47.9582C43.1673 52.2446 38.1749 57.2876 37.3176 62.8852C36.5107 67.9785 37.4184 71.7103 42.4109 73.8788C44.8315 74.8873 49.1684 74.8873 51.589 73.8788C56.5311 71.7103 57.4388 67.9785 56.6824 62.8852C55.8251 57.2876 50.8326 52.2446 52.295 47.9582C52.9506 45.9914 54.7156 44.9324 57.0858 44.8315C61.221 44.8315 65.3562 44.8315 69.4914 44.8315" stroke="#24743B" stroke-width="2.01717" stroke-miterlimit="22.9256" stroke-linecap="round" stroke-linejoin="round"/>
<path d="M48.3111 62.8348C48.9162 63.2886 49.3196 63.9946 49.3196 64.7511C49.3196 66.0118 48.3111 67.0708 46.9999 67.0708C45.7392 67.0708 44.7306 66.0118 44.7306 64.7511C44.7306 63.9946 45.0836 63.2886 45.6887 62.8852" stroke="#24743B" stroke-width="2.01717" stroke-miterlimit="22.9256" stroke-linecap="round" stroke-linejoin="round"/>
</svg>
