<svg width="94" height="94" viewBox="0 0 94 94" fill="none" xmlns="http://www.w3.org/2000/svg">
<path d="M46.9456 92.9108C72.3315 92.9108 92.9108 72.3314 92.9108 46.9455C92.9108 21.5596 72.3315 0.980301 46.9456 0.980301C21.5597 0.980301 0.980347 21.5596 0.980347 46.9455C0.980347 72.3314 21.5597 92.9108 46.9456 92.9108Z" fill="#FEFEFE" stroke="#24743B" stroke-width="1.9606" stroke-miterlimit="22.9256" stroke-linecap="round" stroke-linejoin="round"/>
<path d="M36.4891 35.6176C38.8953 35.6176 40.846 33.667 40.846 31.2607C40.846 28.8545 38.8953 26.9038 36.4891 26.9038C34.0828 26.9038 32.1322 28.8545 32.1322 31.2607C32.1322 33.667 34.0828 35.6176 36.4891 35.6176Z" stroke="#24743B" stroke-width="1.9606" stroke-miterlimit="22.9256" stroke-linecap="round" stroke-linejoin="round"/>
<path fill-rule="evenodd" clip-rule="evenodd" d="M22.4381 57.9467H19.824V38.2317C19.824 37.4693 20.4775 36.9247 21.131 36.9247C21.8935 36.9247 22.4381 37.4693 22.4381 38.2317V57.9467Z" stroke="#24743B" stroke-width="1.9606" stroke-miterlimit="22.9256" stroke-linecap="round" stroke-linejoin="round"/>
<path fill-rule="evenodd" clip-rule="evenodd" d="M22.4381 40.3013C22.656 48.0348 26.0325 54.3523 33.6571 56.9664C32.8947 49.6686 29.0824 43.6779 22.4381 40.3013V40.3013Z" stroke="#24743B" stroke-width="1.9606" stroke-miterlimit="22.9256" stroke-linecap="round" stroke-linejoin="round"/>
<path d="M74.0673 57.9467H19.824V66.7694H74.0673V57.9467Z" stroke="#24743B" stroke-width="1.9606" stroke-miterlimit="22.9256" stroke-linecap="round" stroke-linejoin="round"/>
<path d="M19.824 66.7694V74.6118" stroke="#24743B" stroke-width="1.9606" stroke-miterlimit="22.9256" stroke-linecap="round" stroke-linejoin="round"/>
<path d="M74.0673 48.6883V74.6118" stroke="#24743B" stroke-width="1.9606" stroke-miterlimit="22.9256" stroke-linecap="round" stroke-linejoin="round"/>
<path d="M36.4891 42.6976C37.1426 43.8957 37.6873 44.876 38.2319 46.0742C39.1032 47.5991 38.8854 47.4902 40.6282 47.0545C41.3906 46.9455 42.262 46.7277 43.0244 46.5099C44.1137 46.292 45.5297 46.0742 45.9654 47.4902C46.401 48.9061 45.4207 49.6686 44.2226 49.9954C42.8066 50.3221 41.2817 50.7578 39.7568 51.0846C37.4694 51.7381 37.5783 51.7381 36.0534 49.6686C35.0731 48.3615 34.0928 46.7277 33.2214 44.876" stroke="#24743B" stroke-width="1.9606" stroke-miterlimit="22.9256" stroke-linecap="round" stroke-linejoin="round"/>
<path d="M40.9549 47.0545C40.4103 45.7474 39.9746 44.5492 39.6478 43.2422C38.9943 40.8459 38.7764 38.1228 35.2909 37.5782C34.0928 37.4693 32.8946 37.905 31.5875 39.1031C31.1519 39.6477 30.934 40.5191 30.7162 41.3905C29.9537 46.4009 30.7162 48.6883 33.766 52.5006C34.9641 53.9166 36.2712 55.2236 37.5783 56.4218" stroke="#24743B" stroke-width="1.9606" stroke-miterlimit="22.9256" stroke-linecap="round" stroke-linejoin="round"/>
<path d="M37.1426 57.9467C37.6872 55.5504 38.7764 53.1541 40.5192 50.9757" stroke="#24743B" stroke-width="1.9606" stroke-miterlimit="22.9256" stroke-linecap="round" stroke-linejoin="round"/>
<path d="M45.9653 47.4901C63.9375 47.0545 70.6907 51.6292 73.6316 57.9467" stroke="#24743B" stroke-width="1.9606" stroke-miterlimit="22.9256" stroke-linecap="round" stroke-linejoin="round"/>
<path d="M63.5019 40.4102C69.337 40.4102 74.0673 35.6799 74.0673 29.8447C74.0673 24.0096 69.337 19.2793 63.5019 19.2793C57.6667 19.2793 52.9364 24.0096 52.9364 29.8447C52.9364 35.6799 57.6667 40.4102 63.5019 40.4102Z" stroke="#24743B" stroke-width="1.9606" stroke-miterlimit="22.9256" stroke-linecap="round" stroke-linejoin="round"/>
<path d="M63.5018 32.0232C64.7049 32.0232 65.6803 31.0479 65.6803 29.8447C65.6803 28.6416 64.7049 27.6663 63.5018 27.6663C62.2987 27.6663 61.3234 28.6416 61.3234 29.8447C61.3234 31.0479 62.2987 32.0232 63.5018 32.0232Z" stroke="#24743B" stroke-width="1.9606" stroke-miterlimit="22.9256" stroke-linecap="round" stroke-linejoin="round"/>
<path d="M65.3535 28.6466L69.6015 26.2503" stroke="#24743B" stroke-width="1.9606" stroke-miterlimit="22.9256" stroke-linecap="round" stroke-linejoin="round"/>
<path d="M65.4625 30.934L69.2748 34.9641" stroke="#24743B" stroke-width="1.9606" stroke-miterlimit="22.9256" stroke-linecap="round" stroke-linejoin="round"/>
<path d="M63.5018 20.9131V23.5272" stroke="#24743B" stroke-width="1.9606" stroke-miterlimit="22.9256" stroke-linecap="round" stroke-linejoin="round"/>
<path d="M63.5018 36.2711V38.7764" stroke="#24743B" stroke-width="1.9606" stroke-miterlimit="22.9256" stroke-linecap="round" stroke-linejoin="round"/>
<path d="M72.4334 29.8447H69.9282" stroke="#24743B" stroke-width="1.9606" stroke-miterlimit="22.9256" stroke-linecap="round" stroke-linejoin="round"/>
<path d="M57.1843 29.8447H54.5702" stroke="#24743B" stroke-width="1.9606" stroke-miterlimit="22.9256" stroke-linecap="round" stroke-linejoin="round"/>
</svg>
