<svg width="94" height="94" viewBox="0 0 94 94" fill="none" xmlns="http://www.w3.org/2000/svg">
<path d="M46.9525 92.9545C72.3587 92.9545 92.9545 72.3587 92.9545 46.9525C92.9545 21.5463 72.3587 0.950455 46.9525 0.950455C21.5462 0.950455 0.950439 21.5463 0.950439 46.9525C0.950439 72.3587 21.5462 92.9545 46.9525 92.9545Z" fill="#FEFEFE" stroke="#24743B" stroke-width="1.99596" stroke-miterlimit="22.9256" stroke-linecap="round" stroke-linejoin="round"/>
<path fill-rule="evenodd" clip-rule="evenodd" d="M35.8321 19.3893C43.2457 23.9515 50.7542 23.6663 58.1678 19.3893V25.3771C61.6845 24.9019 63.3953 23.7614 64.821 23.7614C67.007 23.7614 68.8129 25.5672 68.8129 27.7533C68.8129 29.9393 67.007 31.7452 64.821 31.7452C63.3953 31.7452 61.6845 30.5096 58.1678 30.1294V34.5966C50.7542 38.6835 43.2457 38.9687 35.8321 34.5966V30.1294C32.3154 30.5096 30.6046 31.7452 29.1789 31.7452C26.8978 31.7452 25.187 29.9393 25.187 27.7533C25.187 25.5672 26.8978 23.7614 29.1789 23.7614C30.6046 23.7614 32.3154 24.9019 35.8321 25.3771V19.3893V19.3893Z" stroke="#24743B" stroke-width="1.99596" stroke-miterlimit="22.9256" stroke-linecap="round" stroke-linejoin="round"/>
<path fill-rule="evenodd" clip-rule="evenodd" d="M35.8321 37.8281C43.2457 42.3903 50.7542 42.1052 58.1678 37.8281V43.816C61.6845 43.3408 63.3953 42.1052 64.821 42.1052C67.007 42.1052 68.8129 43.911 68.8129 46.1921C68.8129 48.3782 67.007 50.184 64.821 50.184C63.3953 50.184 61.6845 48.9484 58.1678 48.4732V53.0354C50.7542 57.1224 43.2457 57.4075 35.8321 53.0354V48.4732C32.3154 48.9484 30.6046 50.184 29.1789 50.184C26.8978 50.184 25.187 48.3782 25.187 46.1921C25.187 43.911 26.8978 42.1052 29.1789 42.1052C30.6046 42.1052 32.3154 43.3408 35.8321 43.816V37.8281V37.8281Z" stroke="#24743B" stroke-width="1.99596" stroke-miterlimit="22.9256" stroke-linecap="round" stroke-linejoin="round"/>
<path fill-rule="evenodd" clip-rule="evenodd" d="M35.8321 56.1719C43.2457 60.8291 50.7542 60.544 58.1678 56.1719V62.2548C61.6845 61.7796 63.3953 60.544 64.821 60.544C67.007 60.544 68.8129 62.3498 68.8129 64.5359C68.8129 66.817 67.007 68.5278 64.821 68.5278C63.3953 68.5278 61.6845 67.3872 58.1678 66.912V71.4742C50.7542 75.5612 43.2457 75.8463 35.8321 71.4742V66.912C32.3154 67.3872 30.6046 68.5278 29.1789 68.5278C26.8978 68.5278 25.187 66.817 25.187 64.5359C25.187 62.3498 26.8978 60.544 29.1789 60.544C30.6046 60.544 32.3154 61.7796 35.8321 62.2548V56.1719V56.1719Z" stroke="#24743B" stroke-width="1.99596" stroke-miterlimit="22.9256" stroke-linecap="round" stroke-linejoin="round"/>
</svg>
