<svg width="94" height="94" viewBox="0 0 94 94" fill="none" xmlns="http://www.w3.org/2000/svg">
<path d="M47 92.9858C72.3972 92.9858 92.9858 72.3973 92.9858 47C92.9858 21.6027 72.3972 1.01418 47 1.01418C21.6027 1.01418 1.01416 21.6027 1.01416 47C1.01416 72.3973 21.6027 92.9858 47 92.9858Z" fill="#FEFEFE" stroke="#24743B" stroke-width="1.99938" stroke-miterlimit="22.9256" stroke-linecap="round" stroke-linejoin="round"/>
<path d="M65.1683 74.6147C63.111 69.1381 61.3145 63.6326 62.7923 58.127C68.2399 53.7515 71.4273 48.9125 72.2386 43.6387C73.9772 32.2219 67.2257 23.9346 56.6202 20.8921C47.5506 18.3132 38.365 18.516 31.3527 25.3835C29.4402 27.267 27.9045 29.4402 26.7454 31.9612C25.7892 34.0185 25.4994 36.3076 25.7312 38.5678C26.3397 44.7109 28.484 42.2478 24.6301 48.9414C23.6159 50.68 22.6017 52.1868 21.5876 53.4618C20.9791 54.6208 22.9205 56.1566 25.5863 56.6492C26.1369 58.6196 25.4125 59.9236 25.6153 60.4451C25.7892 60.8798 26.2238 61.2275 27.4119 61.894C25.5284 64.6757 26.9193 64.5308 29.5561 67.2256C30.1936 73.2817 31.8453 73.3977 36.2787 72.8181C40.3644 72.2676 44.1313 72.7022 47.058 69.3699C48.6517 67.5734 49.6369 65.2263 51.2596 62.7343" stroke="#24743B" stroke-width="1.99938" stroke-miterlimit="22.9256" stroke-linecap="round" stroke-linejoin="round"/>
<path fill-rule="evenodd" clip-rule="evenodd" d="M45.4353 34.5111H54.8817L48.8545 42.2478H54.5919L48.5648 54.5629L48.1591 46.2466H43.1172L45.4353 34.5111Z" fill="#FEFEFE" stroke="#24743B" stroke-width="1.99938" stroke-miterlimit="22.9256" stroke-linecap="round" stroke-linejoin="round"/>
<path fill-rule="evenodd" clip-rule="evenodd" d="M42.0451 30.5123C42.4797 27.0641 45.4353 24.3693 48.9994 24.3693C52.5636 24.3693 55.5481 27.0641 55.9538 30.5123C59.6338 30.7152 62.5894 33.7867 62.5894 37.5247C62.5894 41.3785 59.431 44.537 55.5771 44.537H53.4618L54.5919 42.2478H48.8546L54.8817 34.5111H45.4353L43.4649 44.537H42.4218C38.5679 44.537 35.4094 41.3785 35.4094 37.5247C35.4094 33.7867 38.365 30.7152 42.0451 30.5123V30.5123Z" stroke="#24743B" stroke-width="1.99938" stroke-miterlimit="22.9256" stroke-linecap="round" stroke-linejoin="round"/>
</svg>
