<svg width="94" height="94" viewBox="0 0 94 94" fill="none" xmlns="http://www.w3.org/2000/svg">
<path d="M47.0592 93.0541C72.4615 93.0541 93.0541 72.4614 93.0541 47.0591C93.0541 21.6568 72.4615 1.06415 47.0592 1.06415C21.6569 1.06415 1.06421 21.6568 1.06421 47.0591C1.06421 72.4614 21.6569 93.0541 47.0592 93.0541Z" fill="#FEFEFE" stroke="#24743B" stroke-width="2.01006" stroke-miterlimit="22.9256" stroke-linecap="round" stroke-linejoin="round"/>
<path d="M44.5761 74.6088C44.5761 65.0314 44.5761 55.3358 44.5761 45.7585C44.5761 42.3295 41.5019 39.8465 39.0189 37.4817C37.4818 36.0629 37.7183 34.0528 39.0189 32.5157C40.6743 30.5056 41.2655 30.0327 41.5019 28.3773C41.7384 25.5396 41.3837 23.0566 39.1371 21.1648C34.0529 16.6717 26.4856 21.4012 23.6478 26.249C21.0466 30.6239 20.8101 35.7082 21.6378 40.556C22.3472 44.4578 23.7661 47.7685 26.1309 50.488C29.3233 53.6805 32.9887 54.3899 37.0088 53.5623C40.9107 51.4339 41.1472 47.4138 39.3736 43.3937" stroke="#24743B" stroke-width="2.01006" stroke-miterlimit="22.9256" stroke-linecap="round" stroke-linejoin="round"/>
<path d="M34.8806 50.0151C34.8806 48.8327 34.8806 47.6503 34.8806 46.4679C34.8806 45.522 34.9989 45.0491 35.9448 44.4579C38.3095 42.6843 43.8668 43.1572 44.5762 45.7585" stroke="#24743B" stroke-width="2.01006" stroke-miterlimit="22.9256" stroke-linecap="round" stroke-linejoin="round"/>
<path d="M34.8806 29.3233C34.8806 35.117 34.6441 33.8163 39.1372 37.7182M34.8806 22.9384C34.8806 24.239 34.8806 25.5396 34.8806 26.722V22.9384Z" stroke="#24743B" stroke-width="2.01006" stroke-miterlimit="22.9256" stroke-linecap="round" stroke-linejoin="round"/>
<path d="M31.9246 22.9384C31.9246 25.0667 31.9246 26.6038 31.9246 28.7321C31.9246 30.7421 31.9246 31.3333 30.7423 30.1509C29.6781 29.0868 28.614 28.1409 27.5498 27.0767" stroke="#24743B" stroke-width="2.01006" stroke-miterlimit="22.9256" stroke-linecap="round" stroke-linejoin="round"/>
<path d="M25.5397 30.1509C26.3674 30.9786 27.1951 31.688 28.141 32.7522C29.5599 34.1711 29.9146 34.5258 28.2592 34.4075C26.8404 34.5258 25.8945 34.4075 24.4756 34.4075" stroke="#24743B" stroke-width="2.01006" stroke-miterlimit="22.9256" stroke-linecap="round" stroke-linejoin="round"/>
<path d="M31.9246 50.0151C31.9246 48.8327 31.9246 47.6503 31.9246 46.2314C31.9246 44.2214 31.9246 43.6302 30.7422 44.8126C29.7963 45.6402 28.9686 46.4679 28.0227 47.4138" stroke="#24743B" stroke-width="2.01006" stroke-miterlimit="22.9256" stroke-linecap="round" stroke-linejoin="round"/>
<path d="M24.4756 37.7182C25.658 37.7182 26.9586 37.7182 28.2592 37.7182C29.5599 37.7182 29.3234 37.8364 29.3234 39.1371C29.3234 39.4918 29.3234 39.9647 29.3234 40.3195C29.3234 41.0289 29.2051 41.3836 28.2592 42.4478C27.5498 43.039 26.9586 43.7484 26.2492 44.3396" stroke="#24743B" stroke-width="2.01006" stroke-miterlimit="22.9256" stroke-linecap="round" stroke-linejoin="round"/>
<path d="M38.3096 33.5798H44.5762" stroke="#24743B" stroke-width="2.01006" stroke-miterlimit="22.9256" stroke-linecap="round" stroke-linejoin="round"/>
<path d="M38.3096 36.4176H44.5762" stroke="#24743B" stroke-width="2.01006" stroke-miterlimit="22.9256" stroke-linecap="round" stroke-linejoin="round"/>
<path d="M49.4238 74.6088C49.4238 65.0314 49.4238 55.3358 49.4238 45.7585C49.4238 42.3295 52.6163 39.8465 55.0993 37.4817C56.5182 36.0629 56.2817 34.0528 54.9811 32.5157C53.3257 30.5056 52.7345 30.0327 52.6163 28.3773C52.2616 25.5396 52.7345 23.0566 54.8628 21.1648C59.9471 16.6717 67.5144 21.4012 70.3521 26.249C72.9534 30.6239 73.1899 35.7082 72.3622 40.556C71.771 44.4578 70.2339 47.7685 67.8691 50.488C64.6767 53.6805 61.0113 54.3899 56.9911 53.5623C53.0892 51.4339 52.8528 47.4138 54.7446 43.3937" stroke="#24743B" stroke-width="2.01006" stroke-miterlimit="22.9256" stroke-linecap="round" stroke-linejoin="round"/>
<path d="M59.1194 50.0151C59.1194 48.8327 59.1194 47.6503 59.1194 46.4679C59.1194 45.522 59.0012 45.0491 58.1735 44.4579C55.6905 42.6843 50.1333 43.1572 49.4238 45.7585" stroke="#24743B" stroke-width="2.01006" stroke-miterlimit="22.9256" stroke-linecap="round" stroke-linejoin="round"/>
<path d="M59.1196 29.3233C59.1196 35.117 59.3561 33.8163 54.863 37.7182M59.1196 22.9384C59.1196 24.239 59.1196 25.5396 59.1196 26.722V22.9384Z" stroke="#24743B" stroke-width="2.01006" stroke-miterlimit="22.9256" stroke-linecap="round" stroke-linejoin="round"/>
<path d="M62.0754 22.9384C62.0754 25.0667 62.0754 26.6038 62.0754 28.7321C62.0754 30.7421 62.0754 31.3333 63.2578 30.1509C64.322 29.0868 65.3861 28.1409 66.4503 27.0767" stroke="#24743B" stroke-width="2.01006" stroke-miterlimit="22.9256" stroke-linecap="round" stroke-linejoin="round"/>
<path d="M68.4604 30.1509C67.6327 30.9786 66.805 31.688 65.8591 32.7522C64.4402 34.1711 64.0855 34.5258 65.7409 34.4075C67.1597 34.5258 68.1056 34.4075 69.6427 34.4075" stroke="#24743B" stroke-width="2.01006" stroke-miterlimit="22.9256" stroke-linecap="round" stroke-linejoin="round"/>
<path d="M62.0754 50.0151C62.0754 48.8327 62.0754 47.6503 62.0754 46.2314C62.0754 44.2214 62.0754 43.6302 63.2578 44.8126C64.2037 45.6402 65.1497 46.4679 65.9773 47.4138" stroke="#24743B" stroke-width="2.01006" stroke-miterlimit="22.9256" stroke-linecap="round" stroke-linejoin="round"/>
<path d="M69.6428 37.7182C68.3421 37.7182 67.0415 37.7182 65.7409 37.7182C64.4403 37.7182 64.6767 37.8364 64.6767 39.1371C64.6767 39.4918 64.6767 39.9647 64.6767 40.3195C64.6767 41.0289 64.795 41.3836 65.7409 42.4478C66.4503 43.039 67.0415 43.7484 67.7509 44.3396" stroke="#24743B" stroke-width="2.01006" stroke-miterlimit="22.9256" stroke-linecap="round" stroke-linejoin="round"/>
<path d="M55.6905 33.5798H49.4238" stroke="#24743B" stroke-width="2.01006" stroke-miterlimit="22.9256" stroke-linecap="round" stroke-linejoin="round"/>
<path d="M55.6905 36.4176H49.4238" stroke="#24743B" stroke-width="2.01006" stroke-miterlimit="22.9256" stroke-linecap="round" stroke-linejoin="round"/>
</svg>
