<svg width="94" height="94" viewBox="0 0 94 94" fill="none" xmlns="http://www.w3.org/2000/svg">
<path d="M47 92.9783C72.3931 92.9783 92.9783 72.3931 92.9783 47C92.9783 21.6069 72.3931 1.02173 47 1.02173C21.6069 1.02173 1.02173 21.6069 1.02173 47C1.02173 72.3931 21.6069 92.9783 47 92.9783Z" fill="#FEFEFE" stroke="#24743B" stroke-width="2.04348" stroke-miterlimit="22.9256" stroke-linecap="round" stroke-linejoin="round"/>
<path fill-rule="evenodd" clip-rule="evenodd" d="M23.3722 19.413H68.5841C71.2662 19.413 74.076 21.7119 73.5651 24.394C71.9048 33.5897 70.8831 42.4022 71.1385 50.9592H34.9945V59.0054H71.6494C72.0325 62.5815 72.6711 66.0299 73.5651 69.606C74.3314 72.288 71.2662 74.5869 68.5841 74.5869H23.3722C20.5624 74.5869 17.7526 72.288 18.3912 69.606C21.3287 54.5353 21.201 39.4647 18.3912 24.394C17.8803 21.7119 20.5624 19.413 23.3722 19.413Z" stroke="#24743B" stroke-width="2.04348" stroke-miterlimit="22.9256" stroke-linecap="round" stroke-linejoin="round"/>
<path fill-rule="evenodd" clip-rule="evenodd" d="M66.0297 34.8668C64.8803 36.0163 63.6031 37.038 62.1982 38.0598C57.6004 41.2527 51.9808 43.1685 45.9781 43.1685C39.4645 43.1685 33.5895 40.9973 28.864 37.4212C27.8422 36.6549 26.9482 35.8886 26.0542 34.9945L35.3776 25.6712C38.0596 28.3532 41.8912 30.0136 45.9781 30.0136C50.1928 30.0136 54.0243 28.3532 56.8341 25.5435L66.0297 34.8668V34.8668Z" stroke="#24743B" stroke-width="2.04348" stroke-miterlimit="22.9256" stroke-linecap="round" stroke-linejoin="round"/>
<path d="M42.5297 30.0135L38.9536 36.2717" stroke="#24743B" stroke-width="2.04348" stroke-miterlimit="22.9256" stroke-linecap="round" stroke-linejoin="round"/>
<path fill-rule="evenodd" clip-rule="evenodd" d="M34.9944 50.9592C48.5324 50.9592 62.0705 50.9592 75.7362 50.9592C75.3531 55.3016 73.9482 56.9619 71.6493 59.0054H34.9944V50.9592V50.9592Z" stroke="#24743B" stroke-width="2.04348" stroke-miterlimit="22.9256" stroke-linecap="round" stroke-linejoin="round"/>
<path fill-rule="evenodd" clip-rule="evenodd" d="M71.1384 50.9593H75.7362C75.3531 46.7446 73.9482 45.0842 71.6493 43.0408H71.2661C71.1384 45.7228 71.1384 48.4049 71.1384 50.9593Z" stroke="#24743B" stroke-width="2.04348" stroke-miterlimit="22.9256" stroke-linecap="round" stroke-linejoin="round"/>
<path d="M41.2527 50.9592V54.5353" stroke="#24743B" stroke-width="2.04348" stroke-miterlimit="22.9256" stroke-linecap="round" stroke-linejoin="round"/>
<path d="M45.4673 50.9592V54.5353" stroke="#24743B" stroke-width="2.04348" stroke-miterlimit="22.9256" stroke-linecap="round" stroke-linejoin="round"/>
<path d="M49.5542 50.9592V54.5353" stroke="#24743B" stroke-width="2.04348" stroke-miterlimit="22.9256" stroke-linecap="round" stroke-linejoin="round"/>
<path d="M53.769 50.9592V54.5353" stroke="#24743B" stroke-width="2.04348" stroke-miterlimit="22.9256" stroke-linecap="round" stroke-linejoin="round"/>
<path d="M57.856 50.9592V54.5353" stroke="#24743B" stroke-width="2.04348" stroke-miterlimit="22.9256" stroke-linecap="round" stroke-linejoin="round"/>
<path d="M62.0706 50.9592V54.5353" stroke="#24743B" stroke-width="2.04348" stroke-miterlimit="22.9256" stroke-linecap="round" stroke-linejoin="round"/>
<path d="M66.1575 50.9592V54.5353" stroke="#24743B" stroke-width="2.04348" stroke-miterlimit="22.9256" stroke-linecap="round" stroke-linejoin="round"/>
<path d="M70.3721 50.9592V54.5353" stroke="#24743B" stroke-width="2.04348" stroke-miterlimit="22.9256" stroke-linecap="round" stroke-linejoin="round"/>
</svg>
